<?xml version="1.0" encoding="UTF-8" standalone="no"?>
<!-- Created with Inkscape (http://www.inkscape.org/) -->

<svg
   xmlns:dc="http://purl.org/dc/elements/1.1/"
   xmlns:cc="http://creativecommons.org/ns#"
   xmlns:rdf="http://www.w3.org/1999/02/22-rdf-syntax-ns#"
   xmlns:svg="http://www.w3.org/2000/svg"
   xmlns="http://www.w3.org/2000/svg"
   xmlns:sodipodi="http://sodipodi.sourceforge.net/DTD/sodipodi-0.dtd"
   xmlns:inkscape="http://www.inkscape.org/namespaces/inkscape"
   width="140.04427mm"
   height="37.384792mm"
   viewBox="0 0 140.04427 37.384792"
   version="1.1"
   id="svg8"
   sodipodi:docname="catK.svg"
   inkscape:version="0.92.3 (2405546, 2018-03-11)">
  <defs
     id="defs2" />
  <sodipodi:namedview
     id="base"
     pagecolor="#ffffff"
     bordercolor="#666666"
     borderopacity="1.0"
     inkscape:pageopacity="0.0"
     inkscape:pageshadow="2"
     inkscape:zoom="1.4"
     inkscape:cx="421.08314"
     inkscape:cy="-23.675827"
     inkscape:document-units="mm"
     inkscape:current-layer="layer1"
     showgrid="false"
     inkscape:snap-nodes="false"
     inkscape:window-width="1299"
     inkscape:window-height="713"
     inkscape:window-x="67"
     inkscape:window-y="27"
     inkscape:window-maximized="1"
     fit-margin-top="0"
     fit-margin-left="0"
     fit-margin-right="0"
     fit-margin-bottom="0" />
  <metadata
     id="metadata5">
    <rdf:RDF>
      <cc:Work
         rdf:about="">
        <dc:format>image/svg+xml</dc:format>
        <dc:type
           rdf:resource="http://purl.org/dc/dcmitype/StillImage" />
        <dc:title />
      </cc:Work>
    </rdf:RDF>
  </metadata>
  <g
     inkscape:label="Layer 1"
     inkscape:groupmode="layer"
     id="layer1"
     transform="translate(-16.498733,-233.10986)">
    <g
       id="g1488"
       style="stroke-width:0.6;stroke-miterlimit:4;stroke-dasharray:none;stroke:#4d4d4d">
      <path
         style="fill:none;stroke:#4d4d4d;stroke-width:0.6;stroke-linecap:butt;stroke-linejoin:miter;stroke-opacity:1;stroke-miterlimit:4;stroke-dasharray:none"
         d="m 74.022358,244.83685 c 0,0 1.05089,-5.3657 -2.16189,-5.08222 -3.21277,0.28349 -3.44189,5.25253 -3.44189,5.25253 0,0 -0.71582,5.14182 2.49696,5.04732 3.21278,-0.0945 2.8348,-2.45684 2.8348,-2.45684"
         id="path1352"
         inkscape:connector-curvature="0"
         sodipodi:nodetypes="cccsc" />
      <g
         transform="matrix(0.87825274,0,0,0.87825274,-28.215502,121.10586)"
         id="g1358"
         style="stroke:#4d4d4d;stroke-width:0.68317464;stroke-miterlimit:4;stroke-dasharray:none">
        <path
           style="fill:none;stroke:#4d4d4d;stroke-width:0.68317464;stroke-linecap:butt;stroke-linejoin:miter;stroke-opacity:1;stroke-miterlimit:4;stroke-dasharray:none"
           d="m 124.59729,140.24535 c 0,0 -0.0181,-0.70198 -0.10712,-1.53281 -0.17091,-1.59598 -0.87329,-3.79451 -4.10475,-3.29736 -4.9137,0.75595 -2.53513,9.22602 -2.53513,9.22602 0,0 0.28464,0.75705 0.9786,1.25277 1.11359,0.79549 3.11583,1.36284 4.16371,-0.0344 1.70089,-2.26786 1.5939,-5.15837 1.5939,-5.15837 z"
           id="path1354"
           inkscape:connector-curvature="0"
           sodipodi:nodetypes="csscsscc" />
        <path
           style="fill:none;stroke:#4d4d4d;stroke-width:0.68317464;stroke-linecap:butt;stroke-linejoin:miter;stroke-opacity:1;stroke-miterlimit:4;stroke-dasharray:none"
           d="m 124.5904,140.80134 c 0,0 -0.4016,4.03962 0.37798,4.96093 0.0922,0.10895 0.16318,0.23385 0.22744,0.31411 0.079,0.0987 0.1479,0.14802 0.23349,0.23795 0.43339,0.45533 0.8139,0.64135 1.40532,0.34564 0.8032,-0.4016 -0.47247,-4.20499 -0.47247,-4.20499"
           id="path1356"
           inkscape:connector-curvature="0"
           sodipodi:nodetypes="ccsscc" />
      </g>
      <g
         id="g1364"
         transform="matrix(0.97706382,-0.24006565,0.20708916,1.1326496,-24.583753,105.04337)"
         style="stroke:#4d4d4d;stroke-width:0.55795587;stroke-miterlimit:4;stroke-dasharray:none">
        <path
           inkscape:connector-curvature="0"
           id="path1360"
           d="m 83.296502,130.73772 c 0,0 -4.110492,12.42597 -2.126117,14.22136 1.984375,1.79538 4.110492,-2.4096 4.110492,-2.4096"
           style="fill:none;stroke:#4d4d4d;stroke-width:0.55795587;stroke-linecap:butt;stroke-linejoin:miter;stroke-opacity:1;stroke-miterlimit:4;stroke-dasharray:none" />
        <path
           sodipodi:nodetypes="cc"
           inkscape:connector-curvature="0"
           id="path1362"
           d="m 78.382812,132.58035 7.654017,2.64584"
           style="fill:none;stroke:#4d4d4d;stroke-width:0.55795587;stroke-linecap:butt;stroke-linejoin:miter;stroke-opacity:1;stroke-miterlimit:4;stroke-dasharray:none" />
      </g>
      <path
         style="fill:none;stroke:#4d4d4d;stroke-width:0.6;stroke-linecap:butt;stroke-linejoin:miter;stroke-opacity:1;stroke-miterlimit:4;stroke-dasharray:none"
         d="m 88.293178,244.53532 5.6649,0.0167 c 0,0 1.05089,-5.3657 -2.16191,-5.08222 -3.21279,0.28349 -3.44191,4.96905 -3.44191,4.96905 0,0 -0.71582,5.4253 2.49698,5.3308 3.21279,-0.0945 2.83482,-2.45684 2.83482,-2.45684"
         id="path1366"
         inkscape:connector-curvature="0"
         sodipodi:nodetypes="ccccsc" />
      <path
         style="fill:none;stroke:#4d4d4d;stroke-width:0.6;stroke-linecap:butt;stroke-linejoin:miter;stroke-opacity:1;stroke-miterlimit:4;stroke-dasharray:none"
         d="m 100.13105,247.30351 c 0,0 0.37798,2.36234 -2.834812,2.45684 -3.21277,0.0945 -2.49695,-5.04732 -2.49695,-5.04732 0,0 0.22911,-4.96904 3.44189,-5.25253 3.212782,-0.28348 1.59493,18.1224 1.59493,18.1224 v 0 0 0 0 c 0,0 -0.36644,11.92672 -6.22507,7.01303 -2.69613,-2.26127 3.81291,-6.33595 6.11683,-11.4023 2.702462,-5.94275 1.637422,-7.10869 1.637422,-7.10869"
         id="path1368"
         inkscape:connector-curvature="0"
         sodipodi:nodetypes="cccscccccssc" />
      <g
         id="g1378"
         transform="translate(-13.371534,102.86635)"
         style="stroke:#4d4d4d;stroke-width:0.6;stroke-miterlimit:4;stroke-dasharray:none">
        <g
           transform="translate(-0.86862597)"
           id="g1374"
           style="stroke:#4d4d4d;stroke-width:0.6;stroke-miterlimit:4;stroke-dasharray:none">
          <path
             style="fill:none;stroke:#4d4d4d;stroke-width:0.6;stroke-linecap:butt;stroke-linejoin:miter;stroke-miterlimit:4;stroke-dasharray:none;stroke-opacity:1"
             d="m 115.5453,139.88968 c 0,0 -0.63867,6.86909 2.74364,6.89043 3.3823,0.0213 2.71553,-6.43161 2.71553,-6.43161"
             id="path1370"
             inkscape:connector-curvature="0" />
          <path
             inkscape:connector-curvature="0"
             id="path1372"
             d="m 115.54255,139.91208 c 0,0 0.0693,-1.19105 0.79714,-2.03819 0.40154,-0.46735 0.73642,-0.8146 1.94935,-0.81885 1.13757,-0.004 1.43685,0.29458 1.84258,0.82795 0.81103,1.0662 0.89643,2.77046 0.89643,2.77046"
             style="fill:none;stroke:#4d4d4d;stroke-width:0.6;stroke-linecap:butt;stroke-linejoin:miter;stroke-miterlimit:4;stroke-dasharray:none;stroke-opacity:1"
             sodipodi:nodetypes="cscsc" />
        </g>
        <path
           sodipodi:nodetypes="csc"
           inkscape:connector-curvature="0"
           id="path1376"
           d="m 115.43629,137.93108 c 0,0 1.27567,1.55915 2.6104,1.27567 1.33473,-0.28348 1.7127,-2.5159 1.7127,-2.5159"
           style="fill:none;stroke:#4d4d4d;stroke-width:0.6;stroke-linecap:butt;stroke-linejoin:miter;stroke-opacity:1;stroke-miterlimit:4;stroke-dasharray:none" />
      </g>
      <path
         sodipodi:nodetypes="cccsc"
         inkscape:connector-curvature="0"
         id="path1380"
         d="m 107.76612,239.38719 0.18899,10.29985 -0.0945,-6.99256 c 0,0 -0.37798,-3.1183 1.7009,-3.1183 2.07885,0 2.69307,1.65365 2.69307,1.65365"
         style="fill:none;stroke:#4d4d4d;stroke-width:0.6;stroke-linecap:butt;stroke-linejoin:miter;stroke-opacity:1;stroke-miterlimit:4;stroke-dasharray:none" />
      <path
         sodipodi:nodetypes="cccccc"
         inkscape:connector-curvature="0"
         id="path1382"
         d="m 112.25458,241.22983 c 0,0 0.2814,1.4523 0.63575,1.42868 0.35435,-0.0236 0.67816,-0.35567 0.67816,-0.35567 0.40943,-0.39395 0.60376,-1.42556 0.75595,-1.93713 l 0.16715,-1.09593 c -0.84732,3.60076 -2.21733,14.69218 2.21752,8.31458"
         style="fill:none;stroke:#4d4d4d;stroke-width:0.6;stroke-linecap:butt;stroke-linejoin:miter;stroke-opacity:1;stroke-miterlimit:4;stroke-dasharray:none" />
      <path
         sodipodi:nodetypes="ccccsc"
         inkscape:connector-curvature="0"
         id="path1384"
         d="m 116.45241,244.53532 5.6649,0.0167 c 0,0 1.05089,-5.3657 -2.16191,-5.08222 -3.21279,0.28349 -3.44191,4.96905 -3.44191,4.96905 0,0 -0.71582,5.4253 2.49698,5.3308 3.21279,-0.0945 2.83482,-2.45684 2.83482,-2.45684"
         style="fill:none;stroke:#4d4d4d;stroke-width:0.6;stroke-linecap:butt;stroke-linejoin:miter;stroke-opacity:1;stroke-miterlimit:4;stroke-dasharray:none" />
      <path
         sodipodi:nodetypes="ccscsc"
         inkscape:connector-curvature="0"
         id="path1388"
         d="m 121.98943,245.54294 c 0.64002,0.42668 4.6318,-2.86113 3.78875,-5.78284 0.20538,0 4.35955,6.41779 1.77001,9.43601 -0.222,0.25875 0.28533,-0.2462 -0.0352,-0.0402 -0.86531,0.82093 -2.74128,0.59212 -3.1624,0.1982 -0.91699,-0.85775 -1.12905,-2.43455 -1.03244,-3.15926"
         style="fill:none;stroke:#4d4d4d;stroke-width:0.6;stroke-linecap:butt;stroke-linejoin:miter;stroke-opacity:1;stroke-miterlimit:4;stroke-dasharray:none" />
      <path
         style="fill:none;stroke:#4d4d4d;stroke-width:0.6;stroke-linecap:butt;stroke-linejoin:miter;stroke-opacity:1;stroke-miterlimit:4;stroke-dasharray:none"
         d="m 134.97249,241.22983 c 0,0 0.2814,1.4523 0.63575,1.42868 0.35435,-0.0236 0.67816,-0.35567 0.67816,-0.35567 0.40943,-0.39395 0.60376,-1.42556 0.75595,-1.93713 l 0.16715,-1.09593 c -0.84732,3.60076 -2.21733,14.69218 2.21752,8.31458"
         id="path1390"
         inkscape:connector-curvature="0"
         sodipodi:nodetypes="cccccc" />
      <path
         style="fill:none;stroke:#4d4d4d;stroke-width:0.6;stroke-linecap:butt;stroke-linejoin:miter;stroke-opacity:1;stroke-miterlimit:4;stroke-dasharray:none"
         d="m 140.0701,239.28342 v 10.50188 -8.22525 c 0,0 1.2852,-2.2032 2.68056,-1.54224 0.5954,0.28204 0.8635,0.51737 1.22785,0.77872 0.48951,0.35113 0.53469,1.57136 0.53469,1.57136 l 0.45324,7.49976"
         id="path1392"
         inkscape:connector-curvature="0"
         sodipodi:nodetypes="cccsscc" />
      <g
         id="g1426"
         style="stroke-width:0.6;stroke-miterlimit:4;stroke-dasharray:none;stroke:#4d4d4d">
        <g
           id="g1398"
           transform="matrix(0.97706382,-0.24006565,0.20708916,1.1326496,-1.8658432,125.35585)"
           style="stroke:#4d4d4d;stroke-width:0.55795587;stroke-miterlimit:4;stroke-dasharray:none">
          <path
             inkscape:connector-curvature="0"
             id="path1394"
             d="m 83.296502,130.73772 c 0,0 -4.110492,12.42597 -2.126117,14.22136 1.984375,1.79538 4.110492,-2.4096 4.110492,-2.4096"
             style="fill:none;stroke:#4d4d4d;stroke-width:0.55795587;stroke-linecap:butt;stroke-linejoin:miter;stroke-opacity:1;stroke-miterlimit:4;stroke-dasharray:none" />
          <path
             sodipodi:nodetypes="cc"
             inkscape:connector-curvature="0"
             id="path1396"
             d="m 78.382812,132.58035 7.654017,2.64584"
             style="fill:none;stroke:#4d4d4d;stroke-width:0.55795587;stroke-linecap:butt;stroke-linejoin:miter;stroke-opacity:1;stroke-miterlimit:4;stroke-dasharray:none" />
          <path
             style="fill:none;stroke:#4d4d4d;stroke-width:0.55795587;stroke-linecap:butt;stroke-linejoin:miter;stroke-opacity:1;stroke-miterlimit:4;stroke-dasharray:none"
             d="m 83.296502,130.73772 c 0,0 -4.110492,12.42597 -2.126117,14.22136 1.984375,1.79538 4.110492,-2.4096 4.110492,-2.4096"
             id="path1420"
             inkscape:connector-curvature="0" />
        </g>
      </g>
      <path
         style="fill:none;stroke:#4d4d4d;stroke-width:0.6;stroke-linecap:butt;stroke-linejoin:miter;stroke-opacity:1;stroke-miterlimit:4;stroke-dasharray:none"
         d="m 111.64763,253.4178 v 16.81994 c 0,0 0.0473,-8.03199 1.84263,-8.31548 1.79539,-0.28348 2.31511,8.31548 2.31511,8.31548"
         id="path1400"
         inkscape:connector-curvature="0"
         sodipodi:nodetypes="cccc" />
      <path
         style="fill:none;stroke:#4d4d4d;stroke-width:0.6;stroke-linecap:butt;stroke-linejoin:miter;stroke-opacity:1;stroke-miterlimit:4;stroke-dasharray:none"
         d="m 116.31878,264.91462 5.6649,0.0167 c 0,0 1.05089,-5.3657 -2.16191,-5.08222 -3.21279,0.28349 -3.44191,4.96905 -3.44191,4.96905 0,0 -0.71582,5.4253 2.49698,5.3308 3.21279,-0.0945 2.83482,-2.45684 2.83482,-2.45684"
         id="path1402"
         inkscape:connector-curvature="0"
         sodipodi:nodetypes="ccccsc" />
      <path
         sodipodi:nodetypes="cccsc"
         inkscape:connector-curvature="0"
         id="path1404"
         d="m 132.95529,264.81189 c 0,0 1.05089,-5.3657 -2.16189,-5.08222 -3.21277,0.28349 -3.44189,5.25253 -3.44189,5.25253 0,0 -0.71582,5.14182 2.49696,5.04732 3.21278,-0.0945 2.8348,-2.45684 2.8348,-2.45684"
         style="fill:none;stroke:#4d4d4d;stroke-width:0.6;stroke-linecap:butt;stroke-linejoin:miter;stroke-opacity:1;stroke-miterlimit:4;stroke-dasharray:none" />
      <g
         style="stroke:#4d4d4d;stroke-width:0.68317464;stroke-miterlimit:4;stroke-dasharray:none"
         id="g1410"
         transform="matrix(0.87825274,0,0,0.87825274,34.993742,141.0809)">
        <g
           id="g1414"
           style="stroke-width:0.68317464;stroke-miterlimit:4;stroke-dasharray:none;stroke:#4d4d4d">
          <path
             style="fill:none;stroke:#4d4d4d;stroke-width:0.68317464;stroke-linecap:butt;stroke-linejoin:miter;stroke-opacity:1;stroke-miterlimit:4;stroke-dasharray:none"
             d="m 124.59729,140.24535 c 0,0 -0.0181,-0.70198 -0.10712,-1.53281 -0.17091,-1.59598 -0.87329,-3.79451 -4.10475,-3.29736 -4.9137,0.75595 -2.53513,9.22602 -2.53513,9.22602 0,0 0.28464,0.75705 0.9786,1.25277 1.11359,0.79549 3.11583,1.36284 4.16371,-0.0344 1.70089,-2.26786 1.5939,-5.15837 1.5939,-5.15837 z"
             id="path1406"
             inkscape:connector-curvature="0"
             sodipodi:nodetypes="csscsscc" />
          <path
             style="fill:none;stroke:#4d4d4d;stroke-width:0.68317464;stroke-linecap:butt;stroke-linejoin:miter;stroke-opacity:1;stroke-miterlimit:4;stroke-dasharray:none"
             d="m 124.5904,140.80134 c 0,0 -0.4016,4.03962 0.37798,4.96093 0.0922,0.10895 0.16318,0.23385 0.22744,0.31411 0.079,0.0987 0.1479,0.14802 0.23349,0.23795 0.43339,0.45533 0.8139,0.64135 1.40532,0.34564 0.8032,-0.4016 -0.47247,-4.20499 -0.47247,-4.20499"
             id="path1408"
             inkscape:connector-curvature="0"
             sodipodi:nodetypes="ccsscc" />
        </g>
      </g>
      <path
         sodipodi:nodetypes="cccc"
         inkscape:connector-curvature="0"
         id="path1416"
         d="m 133.69737,253.4178 v 16.81994 c 0,0 0.0473,-8.03199 1.84263,-8.31548 1.79539,-0.28348 2.31511,8.31548 2.31511,8.31548"
         style="fill:none;stroke:#4d4d4d;stroke-width:0.6;stroke-linecap:butt;stroke-linejoin:miter;stroke-opacity:1;stroke-miterlimit:4;stroke-dasharray:none" />
      <path
         style="fill:none;stroke:#4d4d4d;stroke-width:0.6;stroke-linecap:butt;stroke-linejoin:miter;stroke-opacity:1;stroke-miterlimit:4;stroke-dasharray:none"
         d="m 146.92111,259.69968 0.18899,10.29985 -0.0945,-6.99256 c 0,0 -0.37798,-3.1183 1.7009,-3.1183 2.07885,0 2.69307,1.65365 2.69307,1.65365"
         id="path1418"
         inkscape:connector-curvature="0"
         sodipodi:nodetypes="cccsc" />
      <g
         transform="translate(45.43582)"
         id="g1436"
         style="stroke-width:0.6;stroke-miterlimit:4;stroke-dasharray:none;stroke:#4d4d4d">
        <g
           style="stroke:#4d4d4d;stroke-width:0.55795587;stroke-miterlimit:4;stroke-dasharray:none"
           transform="matrix(0.97706382,-0.24006565,0.20708916,1.1326496,-1.8658432,125.35585)"
           id="g1434">
          <path
             style="fill:none;stroke:#4d4d4d;stroke-width:0.55795587;stroke-linecap:butt;stroke-linejoin:miter;stroke-opacity:1;stroke-miterlimit:4;stroke-dasharray:none"
             d="m 83.296502,130.73772 c 0,0 -4.110492,12.42597 -2.126117,14.22136 1.984375,1.79538 4.110492,-2.4096 4.110492,-2.4096"
             id="path1428"
             inkscape:connector-curvature="0" />
          <path
             style="fill:none;stroke:#4d4d4d;stroke-width:0.55795587;stroke-linecap:butt;stroke-linejoin:miter;stroke-opacity:1;stroke-miterlimit:4;stroke-dasharray:none"
             d="m 78.382812,132.58035 7.654017,2.64584"
             id="path1430"
             inkscape:connector-curvature="0"
             sodipodi:nodetypes="cc" />
          <path
             inkscape:connector-curvature="0"
             id="path1432"
             d="m 83.296502,130.73772 c 0,0 -4.110492,12.42597 -2.126117,14.22136 1.984375,1.79538 4.110492,-2.4096 4.110492,-2.4096"
             style="fill:none;stroke:#4d4d4d;stroke-width:0.55795587;stroke-linecap:butt;stroke-linejoin:miter;stroke-opacity:1;stroke-miterlimit:4;stroke-dasharray:none" />
        </g>
      </g>
      <g
         id="g1444"
         style="stroke-width:0.6;stroke-miterlimit:4;stroke-dasharray:none;stroke:#4d4d4d">
        <path
           style="fill:none;stroke:#4d4d4d;stroke-width:0.6;stroke-linecap:butt;stroke-linejoin:miter;stroke-opacity:1;stroke-miterlimit:4;stroke-dasharray:none"
           d="m 78.997023,259.95833 c 0,0 -25.513391,13.70163 -44.034225,0.0945 C 16.441964,246.44568 16.630952,241.81547 16.630952,241.81547 l 1.133929,14.3631"
           id="path1438"
           inkscape:connector-curvature="0"
           sodipodi:nodetypes="cscc" />
        <path
           style="fill:none;stroke:#4d4d4d;stroke-width:0.6;stroke-linecap:butt;stroke-linejoin:miter;stroke-opacity:1;stroke-miterlimit:4;stroke-dasharray:none"
           d="m 16.583705,241.86272 12.284227,7.89025"
           id="path1440"
           inkscape:connector-curvature="0"
           sodipodi:nodetypes="cc" />
      </g>
    </g>
  </g>
</svg>
