<?xml version="1.0" encoding="UTF-8" standalone="no"?>
<!-- Created with Inkscape (http://www.inkscape.org/) -->

<svg
   xmlns:dc="http://purl.org/dc/elements/1.1/"
   xmlns:cc="http://creativecommons.org/ns#"
   xmlns:rdf="http://www.w3.org/1999/02/22-rdf-syntax-ns#"
   xmlns:svg="http://www.w3.org/2000/svg"
   xmlns="http://www.w3.org/2000/svg"
   xmlns:sodipodi="http://sodipodi.sourceforge.net/DTD/sodipodi-0.dtd"
   xmlns:inkscape="http://www.inkscape.org/namespaces/inkscape"
   width="210mm"
   height="297mm"
   viewBox="0 0 210 297"
   version="1.1"
   id="svg8"
   inkscape:version="0.92.3 (2405546, 2018-03-11)"
   sodipodi:docname="draft.svg">
  <defs
     id="defs2" />
  <sodipodi:namedview
     id="base"
     pagecolor="#ffffff"
     bordercolor="#666666"
     borderopacity="1.0"
     inkscape:pageopacity="0.0"
     inkscape:pageshadow="2"
     inkscape:zoom="0.35355339"
     inkscape:cx="4.1856288"
     inkscape:cy="450.58491"
     inkscape:document-units="mm"
     inkscape:current-layer="layer1"
     showgrid="false"
     inkscape:snap-nodes="false"
     inkscape:window-width="1299"
     inkscape:window-height="713"
     inkscape:window-x="67"
     inkscape:window-y="27"
     inkscape:window-maximized="1" />
  <metadata
     id="metadata5">
    <rdf:RDF>
      <cc:Work
         rdf:about="">
        <dc:format>image/svg+xml</dc:format>
        <dc:type
           rdf:resource="http://purl.org/dc/dcmitype/StillImage" />
        <dc:title></dc:title>
      </cc:Work>
    </rdf:RDF>
  </metadata>
  <g
     inkscape:label="Layer 1"
     inkscape:groupmode="layer"
     id="layer1">
    <g
       id="g871"
       style="fill:#ffffff;stroke:#000000"
       transform="matrix(1.2411065,0,0,1.2411065,-36.663382,-47.902456)">
      <ellipse
         ry="20.045216"
         rx="22.317005"
         cy="124.87843"
         cx="62.941975"
         id="path835"
         style="fill:#ffffff;fill-opacity:1;stroke:#000000;stroke-width:0.60000002;stroke-miterlimit:4;stroke-dasharray:none;stroke-opacity:1" />
      <ellipse
         ry="19.243404"
         rx="28.998743"
         cy="112.04948"
         cx="96.617928"
         id="path839"
         style="fill:#ffffff;fill-opacity:1;stroke:#000000;stroke-width:0.60000002;stroke-miterlimit:4;stroke-dasharray:none;stroke-opacity:1" />
      <ellipse
         ry="21.515198"
         rx="30.067822"
         cy="111.38132"
         cx="129.22481"
         id="path841"
         style="fill:#ffffff;fill-opacity:1;stroke:#000000;stroke-width:0.60000002;stroke-miterlimit:4;stroke-dasharray:none;stroke-opacity:1" />
      <ellipse
         ry="22.317005"
         rx="34.477768"
         cy="144.52274"
         cx="96.484299"
         id="path843"
         style="fill:#ffffff;fill-opacity:1;stroke:#000000;stroke-width:0.60000002;stroke-miterlimit:4;stroke-dasharray:none;stroke-opacity:1" />
      <ellipse
         ry="23.653353"
         rx="29.266012"
         cy="160.02437"
         cx="71.494598"
         id="path845"
         style="fill:#ffffff;fill-opacity:1;stroke:#000000;stroke-width:0.60000002;stroke-miterlimit:4;stroke-dasharray:none;stroke-opacity:1" />
      <ellipse
         ry="25.390606"
         rx="31.404167"
         cy="142.25095"
         cx="139.1138"
         id="path847"
         style="fill:#ffffff;fill-opacity:1;stroke:#000000;stroke-width:0.60000002;stroke-miterlimit:4;stroke-dasharray:none;stroke-opacity:1" />
      <ellipse
         ry="20.579754"
         rx="28.063299"
         cy="129.15474"
         cx="146.99825"
         id="path849"
         style="fill:#ffffff;fill-opacity:1;stroke:#000000;stroke-width:0.60000002;stroke-miterlimit:4;stroke-dasharray:none;stroke-opacity:1" />
      <ellipse
         ry="27.395124"
         rx="42.228584"
         cy="170.98242"
         cx="120.00402"
         id="path851"
         style="fill:#ffffff;fill-opacity:1;stroke:#000000;stroke-width:0.60000002;stroke-miterlimit:4;stroke-dasharray:none;stroke-opacity:1" />
      <circle
         r="12.962572"
         cy="185.14771"
         cx="86.728958"
         id="path853"
         style="fill:#ffffff;fill-opacity:1;stroke:#000000;stroke-width:0.60000002;stroke-miterlimit:4;stroke-dasharray:none;stroke-opacity:1" />
      <ellipse
         ry="17.197916"
         rx="27.214285"
         cy="155.06995"
         cx="153.08035"
         id="path859"
         style="fill:#ffffff;fill-opacity:1;stroke:#000000;stroke-width:0.60000002;stroke-miterlimit:4;stroke-dasharray:none;stroke-opacity:1" />
    </g>
  </g>
  <g
     inkscape:groupmode="layer"
     id="layer2"
     inkscape:label="charts">
    <g
       id="g1025"
       transform="translate(13.570299,52.327863)">
      <path
         d="M 98.651787,60.197914 A 40.443455,14.930058 0 0 1 58.436457,75.127734 40.443455,14.930058 0 0 1 17.767451,60.36634"
         sodipodi:open="true"
         sodipodi:end="3.1303114"
         sodipodi:start="0"
         sodipodi:ry="14.930058"
         sodipodi:rx="40.443455"
         sodipodi:cy="60.197914"
         sodipodi:cx="58.208332"
         sodipodi:type="arc"
         id="path876"
         style="fill:#ffffff;fill-opacity:1;stroke:#000000;stroke-width:0.60000002;stroke-miterlimit:4;stroke-dasharray:none;stroke-opacity:1" />
      <ellipse
         style="fill:#ffffff;fill-opacity:1;stroke:#000000;stroke-width:0.60000002;stroke-miterlimit:4;stroke-dasharray:none;stroke-opacity:1"
         id="ellipse878"
         cx="58.208332"
         cy="48.480652"
         rx="40.443455"
         ry="14.930058" />
      <path
         inkscape:connector-curvature="0"
         id="path880"
         d="m 17.859375,48.197171 -0.09449,12.284226"
         style="fill:none;stroke:#000000;stroke-width:0.60000002;stroke-linecap:butt;stroke-linejoin:miter;stroke-miterlimit:4;stroke-dasharray:none;stroke-opacity:1" />
      <path
         inkscape:connector-curvature="0"
         id="path882"
         d="m 98.628506,48.377262 0.0945,11.966668"
         style="fill:none;stroke:#000000;stroke-width:0.59680253;stroke-linecap:butt;stroke-linejoin:miter;stroke-miterlimit:4;stroke-dasharray:none;stroke-opacity:1" />
      <path
         inkscape:connector-curvature="0"
         id="path886"
         d="M 96.751567,52.715651 59.066564,48.305704 48.24215,63.005528"
         style="fill:none;stroke:#000000;stroke-width:0.60000002;stroke-linecap:butt;stroke-linejoin:miter;stroke-miterlimit:4;stroke-dasharray:none;stroke-opacity:1" />
      <path
         inkscape:connector-curvature="0"
         id="path888"
         d="m 48.242151,63.005527 0.100224,11.592817"
         style="fill:none;stroke:#000000;stroke-width:0.60000002;stroke-linecap:butt;stroke-linejoin:miter;stroke-miterlimit:4;stroke-dasharray:none;stroke-opacity:1" />
      <path
         inkscape:connector-curvature="0"
         id="path890"
         d="m 96.751565,52.715651 0.200456,11.72645"
         style="fill:none;stroke:#000000;stroke-width:0.60000002;stroke-linecap:butt;stroke-linejoin:miter;stroke-miterlimit:4;stroke-dasharray:none;stroke-opacity:1" />
      <path
         inkscape:connector-curvature="0"
         id="path892"
         d="M 59.066564,48.305704 46.70535,34.073602"
         style="fill:none;stroke:#000000;stroke-width:0.60000002;stroke-linecap:butt;stroke-linejoin:miter;stroke-miterlimit:4;stroke-dasharray:none;stroke-opacity:1" />
      <path
         transform="scale(0.26458333)"
         inkscape:connector-curvature="0"
         id="path991"
         d="m 178.86118,236.36871 c -24.06251,-2.71089 -42.48081,-6.41325 -59.48023,-11.95642 -27.895647,-9.09622 -45.402549,-21.32769 -50.019176,-34.94669 -0.514714,-1.5184 -0.565776,-1.88292 -0.637692,-4.55235 -0.043,-1.59598 -0.135748,-2.90179 -0.206116,-2.90179 -0.223102,0 0.152022,-2.52796 0.622706,-4.19642 1.952718,-6.92193 7.548549,-13.70232 16.489824,-19.98049 18.117874,-12.72157 49.957984,-22.58398 87.409654,-27.07495 l 3.19682,-0.38334 0.48338,0.5051 c 0.26587,0.27781 10.30979,11.83546 22.31982,25.68368 12.01004,13.84821 22.01906,25.37946 22.24228,25.625 l 0.40584,0.44642 -19.86019,26.96429 c -16.53636,22.45151 -19.93337,26.9689 -20.29748,26.99186 -0.24051,0.0152 -1.44176,-0.0856 -2.66944,-0.2239 z"
         style="fill:#ff0000;fill-opacity:1;stroke:#ff0000;stroke-width:0.4049494;stroke-miterlimit:4;stroke-dasharray:none;stroke-opacity:1" />
      <path
         transform="scale(0.26458333)"
         inkscape:connector-curvature="0"
         id="path993"
         d="m 178.86118,280.65648 c -30.36866,-3.25603 -56.11508,-9.43568 -75.98214,-18.23723 -18.131055,-8.03246 -29.938278,-18.04108 -33.378503,-28.29392 -1.113959,-3.31992 -1.075087,-2.63195 -1.032562,-18.27458 0.02136,-7.85714 0.08818,-15.91235 0.148484,-17.90046 l 0.109647,-3.61474 0.952729,1.61229 c 2.283202,3.86382 6.422595,8.42403 10.789491,11.88637 15.798809,12.52625 42.602214,22.35708 76.339284,27.99938 6.69527,1.11974 15.81289,2.34198 22.25454,2.98329 l 2.07597,0.20668 0.11325,16.98502 c 0.0623,9.34177 0.16249,18.77297 0.22266,20.95824 0.0911,3.30733 0.0683,3.96951 -0.13565,3.9511 -0.13478,-0.0122 -1.24952,-0.12982 -2.4772,-0.26144 z"
         style="fill:#ff0000;fill-opacity:1;stroke:#ff0000;stroke-width:0.4049494;stroke-miterlimit:4;stroke-dasharray:none;stroke-opacity:1" />
      <path
         transform="scale(0.26458333)"
         inkscape:connector-curvature="0"
         id="path1003"
         d="m 307.22957,191.19249 c -31.74467,-3.7252 -63.47393,-7.44656 -70.50946,-8.2697 -11.01513,-1.28875 -12.83634,-1.5423 -13.11207,-1.82551 -1.62658,-1.67074 -44.16176,-50.89232 -44.05904,-50.985 0.15105,-0.13629 6.72871,-0.72742 12.59895,-1.13226 25.58487,-1.76449 52.11561,-1.06149 76.80947,2.03525 42.8178,5.36959 77.00838,17.50007 92.85986,32.94578 1.40401,1.36807 3.03414,3.08426 3.62249,3.81374 2.88371,3.57539 4.71078,7.12212 5.72251,11.10853 0.41935,1.65235 0.50754,5.8462 0.16233,7.7187 -0.6147,3.33417 -1.874,6.33204 -3.9914,9.50175 -1.1814,1.76856 -1.30817,1.89902 -1.82775,1.88108 -0.30706,-0.0106 -26.53121,-3.06717 -58.27589,-6.79236 z"
         style="fill:#008000;fill-opacity:1;stroke:#008000;stroke-width:0.40087944;stroke-miterlimit:4;stroke-dasharray:none;stroke-opacity:1" />
      <path
         transform="scale(0.26458333)"
         inkscape:connector-curvature="0"
         id="path1005"
         d="m 367.53168,239.34447 c -0.0203,-0.45806 -0.17915,-9.33179 -0.35291,-19.7194 l -0.31594,-18.88657 0.64314,-0.80126 c 1.24542,-1.55162 2.43993,-3.32331 3.2884,-4.87728 0.41483,-0.75977 0.41854,-0.76418 0.64483,-0.76562 l 0.2276,-0.001 0.0366,1.14063 c 0.0201,0.62734 0.0795,7.66562 0.132,15.64062 0.0525,7.975 0.10594,14.92891 0.11879,15.45313 l 0.0234,0.95312 h -0.14858 c -0.14548,0 -0.14859,0.0118 -0.14859,0.56428 0,1.8825 -0.54396,4.62144 -1.3381,6.73751 -0.63847,1.70129 -1.73841,3.87344 -2.61094,5.15605 l -0.16265,0.23909 z"
         style="fill:#008000;fill-opacity:1;stroke:#008000;stroke-width:0.14173229;stroke-miterlimit:4;stroke-dasharray:none;stroke-opacity:1" />
      <path
         transform="scale(0.26458333)"
         inkscape:connector-curvature="0"
         id="path1007"
         d="m 204.8215,238.09827 c -7.04861,-0.30488 -19.55383,-1.10032 -19.73028,-1.255 -0.0742,-0.065 37.10342,-50.82158 38.66995,-52.79402 0.0516,-0.065 15.89752,1.73178 35.21318,3.99277 19.31566,2.26098 50.71108,5.93618 69.76761,8.1671 19.05653,2.23093 34.79091,4.10124 34.9653,4.15626 0.48606,0.15335 -5.10448,5.09203 -8.55636,7.55868 -19.54071,13.96343 -53.57035,24.1681 -94.70083,28.39853 -15.89251,1.63461 -40.63272,2.42432 -55.62857,1.77568 z"
         style="fill:#0000ff;fill-opacity:1;stroke:#0000ff;stroke-width:0.80175889;stroke-miterlimit:4;stroke-dasharray:none;stroke-opacity:1" />
      <path
         transform="scale(0.26458333)"
         inkscape:connector-curvature="0"
         id="path1009"
         d="m 202.5234,282.29576 c -3.11127,-0.15052 -8.53552,-0.47698 -12.05388,-0.72549 l -6.39702,-0.45183 -0.25093,-20.67331 c -0.13801,-11.37032 -0.16406,-20.76018 -0.0579,-20.86635 0.10617,-0.10617 2.62045,-0.009 5.58729,0.21516 21.19527,1.6039 45.74351,1.42733 66.91254,-0.48129 22.68246,-2.04507 43.38171,-5.88542 61.75814,-11.45804 19.10617,-5.79391 35.58778,-14.11711 44.4002,-22.42207 1.02304,-0.96413 1.91972,-1.68844 1.99262,-1.60958 0.0729,0.0789 0.24835,9.05339 0.38988,19.94339 l 0.25735,19.80001 -2.96651,2.84796 c -19.40238,18.62706 -61.85886,31.639 -115.36378,35.35636 -8.90689,0.61882 -35.69341,0.93698 -44.20801,0.52508 z"
         style="fill:#0000ff;fill-opacity:1;stroke:#0000ff;stroke-width:0.80175889;stroke-miterlimit:4;stroke-dasharray:none;stroke-opacity:1" />
    </g>
    <g
       id="g1044"
       transform="translate(14.816667,115.35834)">
      <path
         inkscape:connector-curvature="0"
         id="path1027"
         d="M 51.064593,63.48439 139.5677,63.213325"
         style="fill:none;stroke:#000000;stroke-width:0.60000002;stroke-linecap:butt;stroke-linejoin:miter;stroke-miterlimit:4;stroke-dasharray:none;stroke-opacity:1" />
      <rect
         ry="0.0030625905"
         y="27.596062"
         x="64.367935"
         height="35.702671"
         width="16.123503"
         id="rect1029"
         style="fill:none;fill-opacity:1;stroke:#000000;stroke-width:0.60000002;stroke-miterlimit:4;stroke-dasharray:none;stroke-opacity:1" />
      <rect
         style="fill:#008000;fill-opacity:1;stroke:#000000;stroke-width:0.60000002;stroke-miterlimit:4;stroke-dasharray:none;stroke-opacity:1"
         id="rect1033"
         width="16.203629"
         height="25.331757"
         x="89.727875"
         y="38.007038"
         ry="0.0021729688" />
      <rect
         ry="0.0044607809"
         y="11.244156"
         x="114.42645"
         height="52.002316"
         width="16.018978"
         id="rect1035"
         style="fill:#0000ff;fill-opacity:1;stroke:#000000;stroke-width:0.60000002;stroke-miterlimit:4;stroke-dasharray:none;stroke-opacity:1" />
      <path
         transform="scale(0.26458333)"
         inkscape:connector-curvature="0"
         id="path1037"
         d="m 244.41074,171.89692 v -66 h 29.25 29.25 v 66 66 h -29.25 -29.25 z"
         style="fill:#ff0000;fill-opacity:1;stroke:#ff0000;stroke-width:1.13385832;stroke-miterlimit:4;stroke-dasharray:none;stroke-opacity:1" />
    </g>
  </g>
</svg>
