<?xml version="1.0" encoding="UTF-8" standalone="no"?>
<!-- Created with Inkscape (http://www.inkscape.org/) -->

<svg
   xmlns:dc="http://purl.org/dc/elements/1.1/"
   xmlns:cc="http://creativecommons.org/ns#"
   xmlns:rdf="http://www.w3.org/1999/02/22-rdf-syntax-ns#"
   xmlns:svg="http://www.w3.org/2000/svg"
   xmlns="http://www.w3.org/2000/svg"
   xmlns:sodipodi="http://sodipodi.sourceforge.net/DTD/sodipodi-0.dtd"
   xmlns:inkscape="http://www.inkscape.org/namespaces/inkscape"
   width="105.51674mm"
   height="96.832741mm"
   viewBox="0 0 105.51674 96.832741"
   version="1.1"
   id="svg8"
   sodipodi:docname="isback.svg"
   inkscape:version="0.92.3 (2405546, 2018-03-11)">
  <defs
     id="defs2" />
  <sodipodi:namedview
     id="base"
     pagecolor="#ffffff"
     bordercolor="#666666"
     borderopacity="1.0"
     inkscape:pageopacity="0.0"
     inkscape:pageshadow="2"
     inkscape:zoom="0.7"
     inkscape:cx="339.84817"
     inkscape:cy="-37.617248"
     inkscape:document-units="mm"
     inkscape:current-layer="layer1"
     showgrid="false"
     inkscape:snap-nodes="false"
     inkscape:window-width="1299"
     inkscape:window-height="713"
     inkscape:window-x="67"
     inkscape:window-y="27"
     inkscape:window-maximized="1"
     fit-margin-top="0"
     fit-margin-left="0"
     fit-margin-right="0"
     fit-margin-bottom="0" />
  <metadata
     id="metadata5">
    <rdf:RDF>
      <cc:Work
         rdf:about="">
        <dc:format>image/svg+xml</dc:format>
        <dc:type
           rdf:resource="http://purl.org/dc/dcmitype/StillImage" />
        <dc:title />
      </cc:Work>
    </rdf:RDF>
  </metadata>
  <g
     inkscape:label="Layer 1"
     inkscape:groupmode="layer"
     id="layer1"
     transform="translate(-10.395152,-130.17298)">
    <g
       id="g1030"
       style="stroke-width:0.6;stroke-miterlimit:4;stroke-dasharray:none;stroke:#4d4d4d">
      <g
         style="stroke:#4d4d4d;stroke-width:0.58491983;stroke-miterlimit:4;stroke-dasharray:none"
         transform="matrix(0.99724003,-0.07603714,0.07224179,1.0496318,-60.088308,-1.6617282)"
         id="g911">
        <path
           style="fill:none;stroke:#4d4d4d;stroke-width:0.58491983;stroke-linecap:butt;stroke-linejoin:miter;stroke-opacity:1;stroke-miterlimit:4;stroke-dasharray:none"
           d="m 63.688988,130.3125 -1.322916,16.06399"
           id="path863"
           inkscape:connector-curvature="0" />
        <path
           style="fill:#b3b3b3;stroke:#4d4d4d;stroke-width:0.58491983;stroke-linecap:butt;stroke-linejoin:miter;stroke-opacity:1;stroke-miterlimit:4;stroke-dasharray:none"
           d="m 60.192708,146.04576 4.204985,0.37797"
           id="path878"
           inkscape:connector-curvature="0" />
        <path
           inkscape:connector-curvature="0"
           id="path880"
           d="m 61.251042,130.17066 4.204985,0.37797"
           style="fill:#b3b3b3;stroke:#4d4d4d;stroke-width:0.58491983;stroke-linecap:butt;stroke-linejoin:miter;stroke-opacity:1;stroke-miterlimit:4;stroke-dasharray:none" />
      </g>
      <path
         sodipodi:nodetypes="cccc"
         inkscape:connector-curvature="0"
         id="path886"
         d="m 37.079432,130.40699 v 16.81994 c 0,0 0.04725,-8.03199 1.842632,-8.31548 1.795389,-0.28348 2.315105,8.31548 2.315105,8.31548"
         style="fill:none;stroke:#4d4d4d;stroke-width:0.6;stroke-linecap:butt;stroke-linejoin:miter;stroke-opacity:1;stroke-miterlimit:4;stroke-dasharray:none" />
      <path
         sodipodi:nodetypes="ccccsc"
         inkscape:connector-curvature="0"
         id="path890"
         d="m 41.287151,141.8036 5.664895,0.0167 c 0,0 1.050897,-5.3657 -2.161901,-5.08222 -3.212796,0.28349 -3.44191,4.96905 -3.44191,4.96905 0,0 -0.715827,5.4253 2.496971,5.3308 3.212796,-0.0945 2.83482,-2.45684 2.83482,-2.45684"
         style="fill:none;stroke:#4d4d4d;stroke-width:0.6;stroke-linecap:butt;stroke-linejoin:miter;stroke-opacity:1;stroke-miterlimit:4;stroke-dasharray:none" />
      <path
         sodipodi:nodetypes="cccsc"
         inkscape:connector-curvature="0"
         id="path892"
         d="m 48.002943,137.21056 0.188989,10.29985 -0.0945,-6.99256 c 0,0 -0.377976,-3.1183 1.700903,-3.1183 2.078848,0 2.693065,1.65365 2.693065,1.65365"
         style="fill:none;stroke:#4d4d4d;stroke-width:0.6;stroke-linecap:butt;stroke-linejoin:miter;stroke-opacity:1;stroke-miterlimit:4;stroke-dasharray:none" />
      <path
         style="fill:none;stroke:#4d4d4d;stroke-width:0.6;stroke-linecap:butt;stroke-linejoin:miter;stroke-opacity:1;stroke-miterlimit:4;stroke-dasharray:none"
         d="m 52.81541,141.8036 5.664857,0.0167 c 0,0 1.050894,-5.3657 -2.161888,-5.08222 -3.212772,0.28349 -3.441889,4.96905 -3.441889,4.96905 0,0 -0.715817,5.4253 2.496955,5.3308 3.212782,-0.0945 2.834802,-2.45684 2.834802,-2.45684"
         id="path896"
         inkscape:connector-curvature="0"
         sodipodi:nodetypes="ccccsc" />
      <g
         style="stroke:#4d4d4d;stroke-width:0.55795587;stroke-miterlimit:4;stroke-dasharray:none"
         transform="matrix(0.97706382,-0.24006565,0.20708916,1.1326496,-76.701311,2.144593)"
         id="g904">
        <path
           style="fill:none;stroke:#4d4d4d;stroke-width:0.55795587;stroke-linecap:butt;stroke-linejoin:miter;stroke-opacity:1;stroke-miterlimit:4;stroke-dasharray:none"
           d="m 83.296502,130.73772 c 0,0 -4.110492,12.42597 -2.126117,14.22136 1.984375,1.79538 4.110492,-2.4096 4.110492,-2.4096"
           id="path898"
           inkscape:connector-curvature="0" />
        <path
           style="fill:none;stroke:#4d4d4d;stroke-width:0.55795587;stroke-linecap:butt;stroke-linejoin:miter;stroke-opacity:1;stroke-miterlimit:4;stroke-dasharray:none"
           d="m 78.382812,132.58035 7.654017,2.64584"
           id="path900"
           inkscape:connector-curvature="0"
           sodipodi:nodetypes="cc" />
      </g>
      <path
         sodipodi:nodetypes="cscccsc"
         inkscape:connector-curvature="0"
         id="path906"
         d="m 21.477905,139.50606 c 0,0 -0.801809,-3.87541 -3.474503,-2.80633 -2.672696,1.06908 -2.271792,4.00904 -2.271792,4.00904 0,0 0.467722,1.80407 2.338609,1.00226 1.870887,-0.8018 2.939965,0.96886 2.939965,0.96886 0,0 1.169305,3.60813 -1.035669,4.20949 -2.204974,0.60136 -4.34313,-1.63702 -4.34313,-1.63702"
         style="fill:none;stroke:#4d4d4d;stroke-width:0.6;stroke-linecap:butt;stroke-linejoin:miter;stroke-opacity:1;stroke-miterlimit:4;stroke-dasharray:none" />
      <g
         style="stroke:#4d4d4d;stroke-width:0.68317464;stroke-miterlimit:4;stroke-dasharray:none"
         transform="matrix(0.87825274,0,0,0.87825274,-36.00908,17.88886)"
         id="g921">
        <path
           style="fill:none;stroke:#4d4d4d;stroke-width:0.68317464;stroke-linecap:butt;stroke-linejoin:miter;stroke-opacity:1;stroke-miterlimit:4;stroke-dasharray:none"
           d="m 124.59729,140.24535 c 0,0 -0.0181,-0.70198 -0.10712,-1.53281 -0.17091,-1.59598 -0.87329,-3.79451 -4.10475,-3.29736 -4.9137,0.75595 -2.53513,9.22602 -2.53513,9.22602 0,0 0.28464,0.75705 0.9786,1.25277 1.11359,0.79549 3.11583,1.36284 4.16371,-0.0344 1.70089,-2.26786 1.5939,-5.15837 1.5939,-5.15837 z"
           id="path913"
           inkscape:connector-curvature="0"
           sodipodi:nodetypes="csscsscc" />
        <path
           style="fill:none;stroke:#4d4d4d;stroke-width:0.68317464;stroke-linecap:butt;stroke-linejoin:miter;stroke-opacity:1;stroke-miterlimit:4;stroke-dasharray:none"
           d="m 124.5904,140.80134 c 0,0 -0.4016,4.03962 0.37798,4.96093 0.0922,0.10895 0.16318,0.23385 0.22744,0.31411 0.079,0.0987 0.1479,0.14802 0.23349,0.23795 0.43339,0.45533 0.8139,0.64135 1.40532,0.34564 0.8032,-0.4016 -0.47247,-4.20499 -0.47247,-4.20499"
           id="path917"
           inkscape:connector-curvature="0"
           sodipodi:nodetypes="ccsscc" />
      </g>
      <path
         style="fill:none;stroke:#4d4d4d;stroke-width:0.6;stroke-linecap:butt;stroke-linejoin:miter;stroke-opacity:1;stroke-miterlimit:4;stroke-dasharray:none"
         d="m 25.317134,147.51434 v 16.06837 c 0,0 1.250978,0.17822 3.047817,-0.0926 1.796847,-0.27081 1.982626,-4.24795 1.982626,-4.24795 0,0 0.257029,-2.96639 -1.949734,-2.51957 -2.206764,0.44682 -3.076096,4.2129 -3.076096,4.2129"
         id="path923"
         inkscape:connector-curvature="0"
         sodipodi:nodetypes="cccc" />
      <g
         style="stroke:#4d4d4d;stroke-width:0.68317464;stroke-miterlimit:4;stroke-dasharray:none"
         id="g929"
         transform="matrix(0.87825274,0,0,0.87825274,-72.337786,34.99411)">
        <path
           sodipodi:nodetypes="csscsscc"
           inkscape:connector-curvature="0"
           id="path925"
           d="m 124.59729,140.24535 c 0,0 -0.0181,-0.70198 -0.10712,-1.53281 -0.17091,-1.59598 -0.87329,-3.79451 -4.10475,-3.29736 -4.9137,0.75595 -2.53513,9.22602 -2.53513,9.22602 0,0 0.28464,0.75705 0.9786,1.25277 1.11359,0.79549 3.11583,1.36284 4.16371,-0.0344 1.70089,-2.26786 1.5939,-5.15837 1.5939,-5.15837 z"
           style="fill:none;stroke:#4d4d4d;stroke-width:0.68317464;stroke-linecap:butt;stroke-linejoin:miter;stroke-opacity:1;stroke-miterlimit:4;stroke-dasharray:none" />
        <path
           sodipodi:nodetypes="ccsscc"
           inkscape:connector-curvature="0"
           id="path927"
           d="m 124.5904,140.80134 c 0,0 -0.4016,4.03962 0.37798,4.96093 0.0922,0.10895 0.16318,0.23385 0.22744,0.31411 0.079,0.0987 0.1479,0.14802 0.23349,0.23795 0.43339,0.45533 0.8139,0.64135 1.40532,0.34564 0.8032,-0.4016 -0.47247,-4.20499 -0.47247,-4.20499"
           style="fill:none;stroke:#4d4d4d;stroke-width:0.68317464;stroke-linecap:butt;stroke-linejoin:miter;stroke-opacity:1;stroke-miterlimit:4;stroke-dasharray:none" />
      </g>
      <path
         sodipodi:nodetypes="cccsc"
         inkscape:connector-curvature="0"
         id="path931"
         d="m 45.397101,158.92555 c 0,0 1.05089,-5.3657 -2.16189,-5.08222 -3.212775,0.28349 -3.441892,5.25253 -3.441892,5.25253 0,0 -0.715817,5.14182 2.496955,5.04732 3.212787,-0.0945 2.834807,-2.45684 2.834807,-2.45684"
         style="fill:none;stroke:#4d4d4d;stroke-width:0.6;stroke-linecap:butt;stroke-linejoin:miter;stroke-opacity:1;stroke-miterlimit:4;stroke-dasharray:none" />
      <path
         style="fill:none;stroke:#4d4d4d;stroke-width:0.6;stroke-linecap:butt;stroke-linejoin:miter;stroke-opacity:1;stroke-miterlimit:4;stroke-dasharray:none"
         d="m 56.407701,161.68634 c 0,0 0.37798,2.36234 -2.83481,2.45684 -3.21277,0.0945 -2.49695,-5.04732 -2.49695,-5.04732 0,0 0.22911,-4.96904 3.44189,-5.25253 3.21278,-0.28348 1.59493,18.1224 1.59493,18.1224 v 0 0 0 0 c 0,0 -0.36644,11.92672 -6.22507,7.01303 -2.69613,-2.26127 3.81291,-6.33595 6.11683,-11.4023 2.70246,-5.94275 1.53719,-12.78817 1.53719,-12.78817"
         id="path933"
         inkscape:connector-curvature="0"
         sodipodi:nodetypes="cccscccccssc" />
      <path
         style="fill:none;stroke:#4d4d4d;stroke-width:0.6;stroke-linecap:butt;stroke-linejoin:miter;stroke-opacity:1;stroke-miterlimit:4;stroke-dasharray:none"
         d="m 57.636171,154.31581 0.18899,10.29985 -0.0945,-6.99256 c 0,0 -0.37798,-3.1183 1.7009,-3.1183 2.07885,0 2.69307,1.65365 2.69307,1.65365"
         id="path935"
         inkscape:connector-curvature="0"
         sodipodi:nodetypes="cccsc" />
      <g
         style="stroke:#4d4d4d;stroke-width:0.6;stroke-miterlimit:4;stroke-dasharray:none"
         transform="translate(-52.165909,17.10525)"
         id="g953">
        <g
           style="stroke:#4d4d4d;stroke-width:0.6;stroke-miterlimit:4;stroke-dasharray:none"
           id="g945"
           transform="translate(-0.86862597)">
          <path
             inkscape:connector-curvature="0"
             id="path939"
             d="m 115.5453,139.88968 c 0,0 -0.63867,6.86909 2.74364,6.89043 3.3823,0.0213 2.71553,-6.43161 2.71553,-6.43161"
             style="fill:none;stroke:#4d4d4d;stroke-width:0.6;stroke-linecap:butt;stroke-linejoin:miter;stroke-miterlimit:4;stroke-dasharray:none;stroke-opacity:1" />
          <path
             sodipodi:nodetypes="cscsc"
             style="fill:none;stroke:#4d4d4d;stroke-width:0.6;stroke-linecap:butt;stroke-linejoin:miter;stroke-miterlimit:4;stroke-dasharray:none;stroke-opacity:1"
             d="m 115.54255,139.91208 c 0,0 0.0693,-1.19105 0.79714,-2.03819 0.40154,-0.46735 0.73642,-0.8146 1.94935,-0.81885 1.13757,-0.004 1.43685,0.29458 1.84258,0.82795 0.81103,1.0662 0.89643,2.77046 0.89643,2.77046"
             id="path941"
             inkscape:connector-curvature="0" />
        </g>
        <path
           style="fill:none;stroke:#4d4d4d;stroke-width:0.6;stroke-linecap:butt;stroke-linejoin:miter;stroke-opacity:1;stroke-miterlimit:4;stroke-dasharray:none"
           d="m 115.43629,137.93108 c 0,0 1.27567,1.55915 2.6104,1.27567 1.33473,-0.28348 1.7127,-2.5159 1.7127,-2.5159"
           id="path947"
           inkscape:connector-curvature="0"
           sodipodi:nodetypes="csc" />
      </g>
      <path
         sodipodi:nodetypes="ccsc"
         inkscape:connector-curvature="0"
         id="path955"
         d="m 46.772171,153.87717 0.0668,10.08942 c 0,0 -0.56794,-6.11379 1.43658,-7.38332 2.00452,-1.26953 1.70383,-1.9043 1.70383,-1.9043"
         style="fill:none;stroke:#4d4d4d;stroke-width:0.6;stroke-linecap:butt;stroke-linejoin:miter;stroke-opacity:1;stroke-miterlimit:4;stroke-dasharray:none" />
      <path
         inkscape:connector-curvature="0"
         id="path957"
         d="m 46.772171,159.27267 c 0,0 2.62258,-1.03567 3.00678,0.30068 0.3842,1.33635 1.06907,4.2262 1.06907,4.2262"
         style="fill:none;stroke:#4d4d4d;stroke-width:0.6;stroke-linecap:butt;stroke-linejoin:miter;stroke-opacity:1;stroke-miterlimit:4;stroke-dasharray:none" />
      <path
         sodipodi:nodetypes="cccsscc"
         inkscape:connector-curvature="0"
         id="path959"
         d="m 74.843221,154.24466 v 9.55489 -7.48355 c 0,0 1.16931,-2.00453 2.43884,-1.40317 0.54171,0.25661 0.78564,0.47072 1.11713,0.7085 0.44537,0.31947 0.48648,1.42966 0.48648,1.42966 l 0.41237,6.82348"
         style="fill:none;stroke:#4d4d4d;stroke-width:0.6;stroke-linecap:butt;stroke-linejoin:miter;stroke-opacity:1;stroke-miterlimit:4;stroke-dasharray:none" />
      <path
         sodipodi:nodetypes="ccsccccc"
         inkscape:connector-curvature="0"
         id="path961"
         d="m 69.079401,154.26857 -0.70871,7.98475 c 0,0 -0.12119,1.08267 0.57168,1.58148 0.51061,0.36761 1.76557,0.24542 2.28677,0.0249 1.22843,-0.51972 0.77957,-7.60677 0.77957,-7.60677 0,0 0.30979,7.54304 0.0473,7.55953 0.61422,0.14174 1.08668,0.33072 1.55916,-0.47247 0.47246,-0.8032 0.0472,-2.31511 0.0472,-2.31511"
         style="fill:none;stroke:#4d4d4d;stroke-width:0.6;stroke-linecap:butt;stroke-linejoin:miter;stroke-opacity:1;stroke-miterlimit:4;stroke-dasharray:none" />
      <path
         sodipodi:nodetypes="ccccsccc"
         inkscape:connector-curvature="0"
         id="path963"
         d="m 85.998351,147.5191 v 16.05896 c 0,0 -1.38382,0.17812 -3.37147,-0.0925 -1.98765,-0.27066 -2.19316,-4.24547 -2.19316,-4.24547 0,0 -0.18984,-3.7206 2.25127,-3.27404 2.4411,0.44656 3.30825,4.96638 3.30825,4.96638 0,0 -0.0327,2.19895 0.60208,2.63326 0.63477,0.43432 2.30521,-1.70384 2.30521,-1.70384"
         style="fill:none;stroke:#4d4d4d;stroke-width:0.6;stroke-linecap:butt;stroke-linejoin:miter;stroke-opacity:1;stroke-miterlimit:4;stroke-dasharray:none" />
      <path
         sodipodi:nodetypes="cccc"
         inkscape:connector-curvature="0"
         id="path965"
         d="m 92.793155,152.80208 c 0,0 -6.047621,-5.66964 -2.456847,-7.37053 3.590774,-1.7009 11.528272,0.94494 7.748513,6.99255 -3.779763,6.04763 -3.685268,10.91407 -3.685268,10.91407"
         style="fill:none;stroke:#4d4d4d;stroke-width:0.6;stroke-linecap:butt;stroke-linejoin:miter;stroke-opacity:1;stroke-miterlimit:4;stroke-dasharray:none" />
      <ellipse
         ry="1.063058"
         rx="0.77957588"
         cy="165.3934"
         cx="94.51767"
         id="path967"
         style="fill:none;fill-opacity:1;stroke:#4d4d4d;stroke-width:0.6;stroke-miterlimit:4;stroke-dasharray:none;stroke-opacity:1" />
      <path
         inkscape:connector-curvature="0"
         id="path971"
         d="m 67.27976,171.5119 c 0,0 -17.386903,30.80506 -2.456844,38.1756 14.930059,7.37053 51.026784,13.41815 51.026784,13.41815 0,0 -17.386903,-9.26041 -17.386903,-13.22916"
         style="fill:none;stroke:#4d4d4d;stroke-width:0.6;stroke-linecap:butt;stroke-linejoin:miter;stroke-opacity:1;stroke-miterlimit:4;stroke-dasharray:none" />
      <path
         sodipodi:nodetypes="cc"
         inkscape:connector-curvature="0"
         id="path973"
         d="m 115.66071,223.10565 c 0,0 -14.12685,0.99219 -20.221724,3.77977"
         style="fill:none;stroke:#4d4d4d;stroke-width:0.6;stroke-linecap:butt;stroke-linejoin:miter;stroke-opacity:1;stroke-miterlimit:4;stroke-dasharray:none" />
    </g>
  </g>
</svg>
