<?xml version="1.0" encoding="UTF-8" standalone="no"?>
<!-- Created with Inkscape (http://www.inkscape.org/) -->

<svg
   xmlns:dc="http://purl.org/dc/elements/1.1/"
   xmlns:cc="http://creativecommons.org/ns#"
   xmlns:rdf="http://www.w3.org/1999/02/22-rdf-syntax-ns#"
   xmlns:svg="http://www.w3.org/2000/svg"
   xmlns="http://www.w3.org/2000/svg"
   xmlns:sodipodi="http://sodipodi.sourceforge.net/DTD/sodipodi-0.dtd"
   xmlns:inkscape="http://www.inkscape.org/namespaces/inkscape"
   width="129.94897mm"
   height="32.430141mm"
   viewBox="0 0 129.94897 32.430141"
   version="1.1"
   id="svg8"
   sodipodi:docname="preview.svg"
   inkscape:version="0.92.3 (2405546, 2018-03-11)">
  <defs
     id="defs2" />
  <sodipodi:namedview
     id="base"
     pagecolor="#ffffff"
     bordercolor="#666666"
     borderopacity="1.0"
     inkscape:pageopacity="0.0"
     inkscape:pageshadow="2"
     inkscape:zoom="0.7"
     inkscape:cx="252.07342"
     inkscape:cy="-6.748254"
     inkscape:document-units="mm"
     inkscape:current-layer="layer1"
     showgrid="false"
     inkscape:snap-nodes="true"
     inkscape:window-width="1299"
     inkscape:window-height="713"
     inkscape:window-x="67"
     inkscape:window-y="27"
     inkscape:window-maximized="1"
     fit-margin-top="0"
     fit-margin-left="0"
     fit-margin-right="0"
     fit-margin-bottom="0" />
  <metadata
     id="metadata5">
    <rdf:RDF>
      <cc:Work
         rdf:about="">
        <dc:format>image/svg+xml</dc:format>
        <dc:type
           rdf:resource="http://purl.org/dc/dcmitype/StillImage" />
        <dc:title />
      </cc:Work>
    </rdf:RDF>
  </metadata>
  <g
     inkscape:label="Layer 1"
     inkscape:groupmode="layer"
     id="layer1"
     transform="translate(-37.457993,-49.541813)">
    <g
       id="g1031"
       style="stroke-width:0.6;stroke-miterlimit:4;stroke-dasharray:none;stroke:#4d4d4d">
      <path
         sodipodi:nodetypes="cccsc"
         inkscape:connector-curvature="0"
         id="path958"
         d="m 131.83522,50.410346 0.18899,10.299846 -0.0945,-6.992556 c 0,0 -0.37798,-3.1183 1.7009,-3.1183 2.07885,0 2.69307,1.65365 2.69307,1.65365"
         style="fill:none;stroke:#4d4d4d;stroke-width:0.6;stroke-linecap:butt;stroke-linejoin:miter;stroke-opacity:1;stroke-miterlimit:4;stroke-dasharray:none" />
      <path
         sodipodi:nodetypes="cccccc"
         inkscape:connector-curvature="0"
         id="path960"
         d="M 126.35299,67.459702 V 51.207388 c 0,0 0.96725,-0.747224 2.76373,-0.473264 1.79648,0.27391 2.11537,4.930368 2.11537,4.930368 0,0 -0.25414,3.78396 -2.46046,3.33203 -2.20633,-0.45194 -2.41403,-5.111574 -2.41403,-5.111574"
         style="fill:none;stroke:#4d4d4d;stroke-width:0.6;stroke-linecap:butt;stroke-linejoin:miter;stroke-miterlimit:4;stroke-dasharray:none;stroke-opacity:1" />
      <path
         style="fill:none;stroke:#4d4d4d;stroke-width:0.6;stroke-linecap:butt;stroke-linejoin:miter;stroke-opacity:1;stroke-miterlimit:4;stroke-dasharray:none"
         d="m 136.65286,55.332292 5.6649,0.0167 c 0,0 1.05089,-5.365704 -2.1619,-5.082224 -3.2128,0.28349 -3.44191,4.969054 -3.44191,4.969054 0,0 -0.71583,5.42529 2.49697,5.33079 3.21279,-0.0945 2.83482,-2.45684 2.83482,-2.45684"
         id="path962"
         inkscape:connector-curvature="0"
         sodipodi:nodetypes="ccccsc" />
      <path
         sodipodi:nodetypes="ccsccc"
         inkscape:connector-curvature="0"
         id="path964"
         d="m 142.8205,50.47078 2.37201,9.989202 c 0,0 3.77518,-8.185132 2.83974,-8.986942 -0.93544,-0.801809 -1.9377,0.267269 -1.9377,0.267269 0,0 -0.60136,1.269532 -0.0668,1.737252 0.53453,0.467722 2.91228,-0.450812 2.91228,-0.450812"
         style="fill:none;stroke:#4d4d4d;stroke-width:0.6;stroke-linecap:butt;stroke-linejoin:miter;stroke-opacity:1;stroke-miterlimit:4;stroke-dasharray:none" />
      <path
         sodipodi:nodetypes="ccccccc"
         inkscape:connector-curvature="0"
         id="path968"
         d="m 148.90088,53.022695 c 0,0 2.41946,-0.53929 2.45287,-0.990305 0.0334,-0.451017 -0.23892,-0.803487 -0.23892,-0.803487 -0.0594,3.198402 -0.98636,5.595779 -0.26819,8.421759 0.11322,0.47981 0.16507,0.50459 0.16507,0.50459 0,0 0.25919,0.66533 1.27815,0.39807 1.01897,-0.26727 1.74319,-3.33515 1.74319,-3.33515"
         style="fill:none;stroke:#4d4d4d;stroke-width:0.6;stroke-linecap:butt;stroke-linejoin:miter;stroke-opacity:1;stroke-miterlimit:4;stroke-dasharray:none" />
      <path
         sodipodi:nodetypes="ccccsc"
         inkscape:connector-curvature="0"
         id="path970"
         d="m 153.99252,55.332292 5.6649,0.0167 c 0,0 1.05089,-5.365704 -2.16191,-5.082224 -3.21279,0.28349 -3.44191,4.969054 -3.44191,4.969054 0,0 -0.71582,5.42529 2.49698,5.33079 3.21279,-0.0945 2.83482,-2.45684 2.83482,-2.45684"
         style="fill:none;stroke:#4d4d4d;stroke-width:0.6;stroke-linecap:butt;stroke-linejoin:miter;stroke-opacity:1;stroke-miterlimit:4;stroke-dasharray:none" />
      <path
         inkscape:connector-curvature="0"
         id="path972"
         d="m 160.09413,50.975486 2.26786,9.354916 1.98437,-8.693458 c 0,0 -0.56696,-0.850444 -1.03943,-0.09449 -0.47247,0.755952 2.64583,8.693448 2.64583,8.693448 l 1.32292,-10.677823"
         style="fill:none;stroke:#4d4d4d;stroke-width:0.6;stroke-linecap:butt;stroke-linejoin:miter;stroke-opacity:1;stroke-miterlimit:4;stroke-dasharray:none" />
      <path
         sodipodi:nodetypes="cccscsc"
         inkscape:connector-curvature="0"
         id="path976"
         d="m 94.420763,50.924882 c 0,0 -2.173362,7.79912 0.661458,7.51563 2.834823,-0.28348 3.869507,-7.276037 3.869507,-7.276037 0,0 -0.467722,11.622767 -2.168614,14.174107 -1.700893,2.55134 -4.535713,1.70089 -4.535713,1.70089 0,0 -1.889881,-1.32291 -0.472472,-3.1183 1.41741,-1.79539 9.354911,-6.99256 9.071431,-9.165923"
         style="fill:none;stroke:#4d4d4d;stroke-width:0.6;stroke-linecap:butt;stroke-linejoin:miter;stroke-opacity:1;stroke-miterlimit:4;stroke-dasharray:none" />
      <g
         id="g986"
         transform="translate(-13.673541,-86.367955)"
         style="stroke:#4d4d4d;stroke-width:0.6;stroke-miterlimit:4;stroke-dasharray:none">
        <g
           transform="translate(-0.86862597)"
           id="g982"
           style="stroke:#4d4d4d;stroke-width:0.6;stroke-miterlimit:4;stroke-dasharray:none">
          <path
             style="fill:none;stroke:#4d4d4d;stroke-width:0.6;stroke-linecap:butt;stroke-linejoin:miter;stroke-miterlimit:4;stroke-dasharray:none;stroke-opacity:1"
             d="m 115.5453,139.88968 c 0,0 -0.63867,6.86909 2.74364,6.89043 3.3823,0.0213 2.71553,-6.43161 2.71553,-6.43161"
             id="path978"
             inkscape:connector-curvature="0" />
          <path
             inkscape:connector-curvature="0"
             id="path980"
             d="m 115.54255,139.91208 c 0,0 0.0693,-1.19105 0.79714,-2.03819 0.40154,-0.46735 0.73642,-0.8146 1.94935,-0.81885 1.13757,-0.004 1.43685,0.29458 1.84258,0.82795 0.81103,1.0662 0.89643,2.77046 0.89643,2.77046"
             style="fill:none;stroke:#4d4d4d;stroke-width:0.6;stroke-linecap:butt;stroke-linejoin:miter;stroke-miterlimit:4;stroke-dasharray:none;stroke-opacity:1"
             sodipodi:nodetypes="cscsc" />
        </g>
        <path
           sodipodi:nodetypes="csc"
           inkscape:connector-curvature="0"
           id="path984"
           d="m 115.43629,137.93108 c 0,0 1.27567,1.55915 2.6104,1.27567 1.33473,-0.28348 1.7127,-2.5159 1.7127,-2.5159"
           style="fill:none;stroke:#4d4d4d;stroke-width:0.6;stroke-linecap:butt;stroke-linejoin:miter;stroke-opacity:1;stroke-miterlimit:4;stroke-dasharray:none" />
      </g>
      <path
         style="fill:none;stroke:#4d4d4d;stroke-width:0.6;stroke-linecap:butt;stroke-linejoin:miter;stroke-opacity:1;stroke-miterlimit:4;stroke-dasharray:none"
         d="m 107.5597,50.646589 -0.70871,7.984743 c 0,0 -0.12119,1.08267 0.57168,1.58148 0.51061,0.36761 1.76557,0.24542 2.28677,0.0249 1.22843,-0.51972 0.77957,-7.606763 0.77957,-7.606763 0,0 0.29207,7.548943 0.0296,7.565433 0.61422,0.14174 1.10439,0.32481 1.57687,-0.47838 0.47246,-0.8032 0.0472,-2.31511 0.0472,-2.31511"
         id="path988"
         inkscape:connector-curvature="0"
         sodipodi:nodetypes="ccsccccc" />
      <path
         style="fill:none;stroke:#4d4d4d;stroke-width:0.6;stroke-linecap:butt;stroke-linejoin:miter;stroke-opacity:1;stroke-miterlimit:4;stroke-dasharray:none"
         d="m 112.74112,50.314025 0.18899,10.299847 -0.0945,-6.992557 c 0,0 -0.37798,-3.1183 1.7009,-3.1183 2.07885,0 2.69307,1.65365 2.69307,1.65365"
         id="path990"
         inkscape:connector-curvature="0"
         sodipodi:nodetypes="cccsc" />
      <path
         style="fill:none;stroke:#4d4d4d;stroke-width:0.6;stroke-linecap:butt;stroke-linejoin:miter;stroke-opacity:1;stroke-miterlimit:4;stroke-dasharray:none"
         d="m 114.30229,64.866109 v 16.81994 c 0,0 0.0473,-8.03199 1.84263,-8.31548 1.79539,-0.28348 2.3151,8.31548 2.3151,8.31548"
         id="path992"
         inkscape:connector-curvature="0"
         sodipodi:nodetypes="cccc" />
      <path
         style="fill:none;stroke:#4d4d4d;stroke-width:0.6;stroke-linecap:butt;stroke-linejoin:miter;stroke-opacity:1;stroke-miterlimit:4;stroke-dasharray:none"
         d="m 118.51001,76.262719 5.66489,0.0167 c 0,0 1.0509,-5.3657 -2.1619,-5.08222 -3.2128,0.28349 -3.44191,4.96905 -3.44191,4.96905 0,0 -0.71583,5.4253 2.49697,5.3308 3.2128,-0.0945 2.83482,-2.45684 2.83482,-2.45684"
         id="path994"
         inkscape:connector-curvature="0"
         sodipodi:nodetypes="ccccsc" />
      <path
         style="fill:none;stroke:#4d4d4d;stroke-width:0.6;stroke-linecap:butt;stroke-linejoin:miter;stroke-opacity:1;stroke-miterlimit:4;stroke-dasharray:none"
         d="m 125.2258,71.669679 0.18899,10.29985 -0.0945,-6.99256 c 0,0 -0.37798,-3.1183 1.7009,-3.1183 2.07885,0 2.69306,1.65365 2.69306,1.65365"
         id="path996"
         inkscape:connector-curvature="0"
         sodipodi:nodetypes="cccsc" />
      <path
         sodipodi:nodetypes="ccccsc"
         inkscape:connector-curvature="0"
         id="path998"
         d="m 130.03826,76.262719 5.66486,0.0167 c 0,0 1.0509,-5.3657 -2.16189,-5.08222 -3.21277,0.28349 -3.44189,4.96905 -3.44189,4.96905 0,0 -0.71581,5.4253 2.49696,5.3308 3.21278,-0.0945 2.8348,-2.45684 2.8348,-2.45684"
         style="fill:none;stroke:#4d4d4d;stroke-width:0.6;stroke-linecap:butt;stroke-linejoin:miter;stroke-opacity:1;stroke-miterlimit:4;stroke-dasharray:none" />
      <path
         sodipodi:nodetypes="ccccsc"
         inkscape:connector-curvature="0"
         id="path1000"
         d="m 118.51001,76.262719 5.66489,0.0167 c 0,0 1.0509,-5.3657 -2.1619,-5.08222 -3.2128,0.28349 -3.44191,4.96905 -3.44191,4.96905 0,0 -0.71583,5.4253 2.49697,5.3308 3.2128,-0.0945 2.83482,-2.45684 2.83482,-2.45684"
         style="fill:none;stroke:#4d4d4d;stroke-width:0.6;stroke-linecap:butt;stroke-linejoin:miter;stroke-opacity:1;stroke-miterlimit:4;stroke-dasharray:none" />
      <path
         style="fill:none;stroke:#4d4d4d;stroke-width:0.6;stroke-linecap:butt;stroke-linejoin:miter;stroke-miterlimit:4;stroke-dasharray:none;stroke-opacity:1"
         d="m 118.51001,76.262719 5.66489,0.0167 c 0,0 1.0509,-5.3657 -2.1619,-5.08222 -3.2128,0.28349 -3.44191,4.96905 -3.44191,4.96905 0,0 -0.71583,5.4253 2.49697,5.3308 3.2128,-0.0945 2.83482,-2.45684 2.83482,-2.45684"
         id="path1002"
         inkscape:connector-curvature="0"
         sodipodi:nodetypes="ccccsc" />
      <path
         sodipodi:nodetypes="cscc"
         inkscape:connector-curvature="0"
         id="path1004"
         d="M 86.862596,55.121076 C 86.509539,56.023291 63.016319,52.820855 56.815398,56.587126 40.92118,66.240843 38.754093,80.244329 38.754081,80.244412 L 47.4554,70.973823"
         style="fill:none;stroke:#4d4d4d;stroke-width:0.6;stroke-linecap:butt;stroke-linejoin:miter;stroke-opacity:1;stroke-miterlimit:4;stroke-dasharray:none" />
      <path
         sodipodi:nodetypes="cc"
         inkscape:connector-curvature="0"
         id="path1006"
         d="M 38.754081,80.244412 37.589637,68.520108"
         style="fill:none;stroke:#4d4d4d;stroke-width:0.6;stroke-linecap:butt;stroke-linejoin:miter;stroke-opacity:1;stroke-miterlimit:4;stroke-dasharray:none" />
    </g>
  </g>
</svg>
