<?xml version="1.0" encoding="UTF-8" standalone="no"?>
<!-- Created with Inkscape (http://www.inkscape.org/) -->

<svg
   xmlns:dc="http://purl.org/dc/elements/1.1/"
   xmlns:cc="http://creativecommons.org/ns#"
   xmlns:rdf="http://www.w3.org/1999/02/22-rdf-syntax-ns#"
   xmlns:svg="http://www.w3.org/2000/svg"
   xmlns="http://www.w3.org/2000/svg"
   xmlns:sodipodi="http://sodipodi.sourceforge.net/DTD/sodipodi-0.dtd"
   xmlns:inkscape="http://www.inkscape.org/namespaces/inkscape"
   width="148.1749mm"
   height="122.62303mm"
   viewBox="0 0 148.1749 122.62303"
   version="1.1"
   id="svg8"
   inkscape:version="0.92.3 (2405546, 2018-03-11)"
   sodipodi:docname="tripie.svg">
  <defs
     id="defs2" />
  <sodipodi:namedview
     id="base"
     pagecolor="#ffffff"
     bordercolor="#666666"
     borderopacity="1.0"
     inkscape:pageopacity="0.0"
     inkscape:pageshadow="2"
     inkscape:zoom="0.25"
     inkscape:cx="15.171332"
     inkscape:cy="655.88943"
     inkscape:document-units="mm"
     inkscape:current-layer="g1162"
     showgrid="false"
     inkscape:snap-nodes="false"
     inkscape:window-width="1299"
     inkscape:window-height="713"
     inkscape:window-x="67"
     inkscape:window-y="27"
     inkscape:window-maximized="1"
     fit-margin-top="0"
     fit-margin-left="0"
     fit-margin-right="0"
     fit-margin-bottom="0" />
  <metadata
     id="metadata5">
    <rdf:RDF>
      <cc:Work
         rdf:about="">
        <dc:format>image/svg+xml</dc:format>
        <dc:type
           rdf:resource="http://purl.org/dc/dcmitype/StillImage" />
        <dc:title></dc:title>
      </cc:Work>
    </rdf:RDF>
  </metadata>
  <g
     inkscape:label="Layer 1"
     inkscape:groupmode="layer"
     id="layer1"
     transform="translate(-39.43089,-56.156931)" />
  <g
     inkscape:groupmode="layer"
     id="layer2"
     inkscape:label="charts"
     transform="translate(-39.43089,-56.156931)">
    <g
       id="g1162"
       transform="translate(-56.874956,14.218739)">
      <g
         id="g1312">
        <g
           transform="translate(-27.697463,-34.62281)"
           id="g1267">
          <path
             inkscape:connector-curvature="0"
             id="path1136"
             d="m 187.27992,93.372687 c -8.39911,-0.985626 -16.79414,-1.970236 -18.65562,-2.188025 -2.91442,-0.340982 -3.39629,-0.408067 -3.46924,-0.483 -0.43037,-0.44205 -11.68447,-13.465259 -11.65729,-13.489781 0.04,-0.03606 1.78031,-0.192463 3.33347,-0.299577 6.76934,-0.466854 13.78893,-0.280852 20.32251,0.538493 11.32888,1.420704 20.37513,4.630227 24.56917,8.716905 0.37148,0.361968 0.80278,0.816043 0.95845,1.009052 0.76298,0.945988 1.2464,1.884394 1.51408,2.939131 0.11096,0.437185 0.13429,1.546808 0.0429,2.04224 -0.16264,0.882166 -0.49583,1.675352 -1.05606,2.514004 -0.31257,0.467932 -0.34612,0.50245 -0.48359,0.497703 -0.0812,-0.0028 -7.01971,-0.811522 -15.41883,-1.797145 z"
             style="fill:none;fill-opacity:1;stroke:#000000;stroke-width:0.2;stroke-miterlimit:4;stroke-dasharray:none;stroke-opacity:1" />
          <path
             inkscape:connector-curvature="0"
             id="path1138"
             d="m 203.23486,106.1129 c -0.005,-0.1212 -0.0474,-2.46904 -0.0934,-5.21743 l -0.0836,-4.997068 0.17016,-0.212 c 0.32952,-0.410533 0.64557,-0.879293 0.87006,-1.290447 0.10976,-0.201023 0.11074,-0.20219 0.17061,-0.202571 l 0.0602,-2.64e-4 0.01,0.301792 c 0.005,0.165983 0.021,2.028195 0.0349,4.138247 0.0139,2.110051 0.028,3.949941 0.0314,4.088641 l 0.006,0.25218 h -0.0393 c -0.0385,0 -0.0393,0.003 -0.0393,0.1493 0,0.49808 -0.14392,1.22275 -0.35404,1.78263 -0.16892,0.45013 -0.45995,1.02485 -0.69081,1.36421 l -0.043,0.0633 z"
             style="fill:none;fill-opacity:1;stroke:#000000;stroke-width:0.2;stroke-miterlimit:4;stroke-dasharray:none;stroke-opacity:1" />
          <path
             inkscape:connector-curvature="0"
             id="path1140"
             d="m 160.18446,105.78317 c -1.86495,-0.0807 -5.17362,-0.29112 -5.22031,-0.33205 -0.0196,-0.0172 9.81695,-13.446541 10.23143,-13.968416 0.0136,-0.0172 4.20621,0.458201 9.31682,1.056421 5.1106,0.598217 13.4173,1.570614 18.45934,2.160878 5.04204,0.590267 9.2051,1.08512 9.25124,1.099677 0.1286,0.04057 -1.35056,1.347267 -2.26387,1.999901 -5.17015,3.694489 -14.17382,6.394479 -25.05626,7.513779 -4.2049,0.43249 -10.75074,0.64143 -14.71839,0.46981 z"
             style="fill:none;fill-opacity:1;stroke:#000000;stroke-width:0.2;stroke-miterlimit:4;stroke-dasharray:none;stroke-opacity:1" />
          <path
             inkscape:connector-curvature="0"
             id="path1142"
             d="m 159.57642,117.47709 c -0.82319,-0.0398 -2.25836,-0.1262 -3.18926,-0.19195 l -1.69254,-0.11955 -0.0664,-5.46981 c -0.0365,-3.0084 -0.0434,-5.4928 -0.0153,-5.52089 0.0281,-0.0281 0.69332,-0.002 1.4783,0.0569 5.60791,0.42437 12.10297,0.37765 17.70394,-0.12734 6.0014,-0.54109 11.47808,-1.55719 16.34018,-3.03161 5.05517,-1.53297 9.41593,-3.73515 11.74755,-5.932503 0.27068,-0.255093 0.50792,-0.446734 0.52721,-0.425869 0.0193,0.02088 0.0657,2.395377 0.10316,5.276692 l 0.0681,5.23875 -0.78489,0.75352 c -5.13355,4.92841 -16.36682,8.37115 -30.52333,9.35471 -2.35662,0.16373 -9.44388,0.24791 -11.69671,0.13892 z"
             style="fill:none;fill-opacity:1;stroke:#000000;stroke-width:0.2;stroke-miterlimit:4;stroke-dasharray:none;stroke-opacity:1" />
          <g
             id="g1152">
            <path
               sodipodi:nodetypes="csccsccccccscsccc"
               style="fill:none;fill-opacity:1;stroke:#000000;stroke-width:0.2;stroke-miterlimit:4;stroke-dasharray:none;stroke-opacity:1"
               d="m 153.31579,105.32556 c -6.36654,-0.71725 -11.23972,-1.69684 -15.73748,-3.16347 -7.38072,-2.406706 -12.01276,-5.642949 -13.23424,-9.24631 -0.13618,-0.401743 -0.18276,-0.597408 -0.23487,-1.237549 -0.0114,-0.422269 0.0302,-0.685083 0.0117,-0.685083 -0.059,0 0.0402,-0.718465 0.16475,-1.159912 0.51666,-1.831427 1.99722,-3.625405 4.36294,-5.286504 4.79368,-3.365916 13.21805,-5.975345 23.12713,-7.163581 l 0.84583,-0.101425 0.12789,0.133641 c 0.0703,0.0735 2.7278,3.131465 5.90546,6.795474 3.17765,3.664005 5.82587,6.714982 5.88493,6.779947 l 0.10738,0.118116 -5.25467,7.134301 c -4.37525,5.940295 -5.27404,7.135525 -5.37038,7.141595 -0.0636,0.004 -0.38147,-0.0226 -0.70629,-0.0592 z"
               id="path1144"
               inkscape:connector-curvature="0" />
            <path
               style="fill:none;fill-opacity:1;stroke:#000000;stroke-width:0.2;stroke-miterlimit:4;stroke-dasharray:none;stroke-opacity:1"
               d="m 153.31579,117.04337 c -8.03504,-0.86149 -14.84712,-2.49653 -20.10361,-4.82527 -4.79718,-2.12525 -7.92117,-4.77337 -8.83139,-7.4861 -0.29474,-0.8784 -0.28446,-0.69637 -0.2732,-4.835149 0.006,-2.078868 0.0233,-4.210142 0.0393,-4.736163 l 0.029,-0.9564 0.25207,0.426585 c 0.6041,1.022302 1.69931,2.228858 2.85472,3.144935 4.1801,3.314242 11.27184,5.915312 20.1981,7.408172 1.77146,0.29626 4.18383,0.61965 5.88818,0.78933 l 0.54927,0.0547 0.03,4.49395 c 0.0165,2.47168 0.043,4.96702 0.0589,5.5452 0.0241,0.87507 0.0181,1.05027 -0.0359,1.0454 -0.0357,-0.003 -0.3306,-0.0343 -0.65542,-0.0692 z"
               id="path1146"
               inkscape:connector-curvature="0" />
            <path
               style="fill:none;stroke:#ff0000;stroke-width:0.26458332px;stroke-linecap:butt;stroke-linejoin:miter;stroke-opacity:1"
               d="m 151.35473,78.85461 -24.50861,9.541523 26.19241,-6.922281 -27.87621,9.354436 30.68254,-7.109372 -30.68254,8.606082 31.61798,-7.109374 -28.99874,9.167344 30.30836,-6.548101 -28.81165,7.857721 31.4309,-7.109368 -29.7471,8.980258 29.56001,-6.92228 -23.57318,7.67063 18.70887,-4.30304 -13.28329,5.23849 19.27013,-7.29646 -18.1476,8.793172 17.02507,-6.922292 -12.34786,6.548112 11.78659,-4.490132 -8.98026,5.799752 6.17393,-2.245062"
               id="path1148"
               inkscape:connector-curvature="0" />
            <path
               style="fill:none;stroke:#ff0000;stroke-width:0.26458332px;stroke-linecap:butt;stroke-linejoin:miter;stroke-opacity:1"
               d="m 124.46074,95.645818 0.18708,7.577092 1.16931,-5.659432 0.0468,8.793172 0.88867,-5.47235 0.88867,4.86431 1.44994,-5.61266 0.18709,8.98025 1.21607,-4.8643 -0.0935,5.3788 1.44994,-7.43678 -0.0468,8.18513 1.21607,-8.60608 0.42095,9.21412 1.21608,-5.42557 -0.0935,2.57247 0.65481,-1.82412 -0.42095,2.15152 0.79513,-2.19829 0.98221,-2.57247 -1.1693,8.79317 2.19829,-8.51253 -0.98221,9.02702 2.29183,-9.21411 -0.65481,9.49475 1.63703,-8.79317 -0.93545,9.16734 1.73057,-7.99804 0.0468,6.87551 1.3564,-7.29646 -0.23386,9.40121 1.12253,-9.40121 0.28063,9.68184 1.26285,-9.68184 0.32741,9.9157 0.0468,-4.5369 0.70158,4.16273 -0.14032,-8.55931 1.12253,9.26089 -0.14031,-10.10279 2.15152,10.57051 -0.14032,-8.74639 0.70158,7.15614 0.65482,-6.64165 0.42094,5.00462 0.23386,-2.19829 0.14032,0.88867 0.23386,-1.40317 0.0468,0.70159 0.0935,0.42095 0.70158,-2.5257 0.0935,3.18051 0.60804,3.46114 0.37418,-4.11595"
               id="path1150"
               inkscape:connector-curvature="0" />
          </g>
          <path
             inkscape:connector-curvature="0"
             id="path1154"
             d="m 166.50891,92.512088 -3.1805,2.80633 5.61266,-2.43216 -7.67064,5.42557 9.72861,-5.61266 -12.90912,9.728622 14.40583,-9.167352 -15.90253,11.038232 17.96051,-11.038232 -16.83798,11.599502 18.33469,-11.225322 -14.9671,10.664052 17.58634,-10.664052 -12.34785,10.664052 14.78,-10.102792 -11.97368,10.476972 15.34128,-10.102792 -11.97368,9.354432 13.47038,-9.167342 -10.66405,10.102792 12.72203,-10.102792 -5.98684,6.922282 5.0514,-4.303042 -2.05798,5.238482 5.79975,-7.296452 -10.66405,8.980252 14.59291,-8.793172 -6.17392,5.986842 7.10936,-6.173922 -3.36759,5.799742 4.8643,-5.799742 -1.30962,2.80632 1.87089,-1.87088 0.18709,1.30962 0.93544,-1.12253 0.18709,0.37417"
             style="fill:none;stroke:#008000;stroke-width:0.26458332px;stroke-linecap:butt;stroke-linejoin:miter;stroke-opacity:1" />
          <path
             inkscape:connector-curvature="0"
             id="path1156"
             d="m 156.40613,107.29209 -0.93545,8.60608 2.80633,-7.29646 2.05798,6.73519 0.37418,-7.10937 1.68379,7.29646 v -7.48355 l 2.24507,8.419 v -8.79317 l 2.3386,8.98025 -0.18708,-7.39 2.43215,6.26747 -0.56127,-8.04481 3.08697,8.60608 -0.93545,-8.79317 3.3676,9.0738 -1.30962,-7.29646 2.24506,6.45456 0.18709,-9.0738 2.33861,9.54152 -0.65481,-8.79316 2.05797,8.60607 0.18709,-9.26088 2.15152,8.41898 -0.0936,-8.79316 1.49672,8.88671 0.74835,-8.69962 1.87089,7.76418 0.0935,-7.39001 2.24506,7.39001 -0.8419,-9.0738 3.46114,8.04481 -0.8419,-9.16735 3.08696,7.85773 -0.74835,-8.51254 2.61924,8.51254 -0.8419,-8.2319 2.15152,6.82873 -0.18709,-8.2319 1.87089,7.20292 -0.37418,-8.23191 2.61924,7.39001 -1.12253,-7.76418 2.05797,6.64164 0.93545,-8.699622"
             style="fill:none;stroke:#008000;stroke-width:0.26458332px;stroke-linecap:butt;stroke-linejoin:miter;stroke-opacity:1" />
          <path
             inkscape:connector-curvature="0"
             id="path1158"
             d="m 202.9137,93.39273 -38.35317,-4.115952 37.97899,2.806332 -39.28861,-4.303041 38.91444,2.432154 -40.22407,-4.303041 40.03698,2.432153 -41.72077,-3.928861 39.10153,1.870887 -40.03698,-3.741774 38.91445,2.432153 -40.59825,-4.864307 38.54027,3.367596 -40.78533,-4.303038 26.56659,0.748356 -20.76684,-2.057977"
             style="fill:none;stroke:#0000ff;stroke-width:0.26458332px;stroke-linecap:butt;stroke-linejoin:miter;stroke-opacity:1" />
          <path
             inkscape:connector-curvature="0"
             id="path1160"
             d="m 203.87987,95.505498 -0.3274,3.3676 0.46772,-2.05798 -0.42095,5.191722 0.56127,-1.59026 -0.5145,3.04019"
             style="fill:none;stroke:#0000ff;stroke-width:0.26458332px;stroke-linecap:butt;stroke-linejoin:miter;stroke-opacity:1" />
        </g>
        <g
           transform="rotate(-90,202.58348,54.858254)"
           id="g1209">
          <g
             transform="rotate(37.915722,214.09141,89.718408)"
             id="g1252">
            <path
               inkscape:connector-curvature="0"
               id="path1170"
               d="m 187.27992,93.372687 c -8.39911,-0.985626 -16.79414,-1.970236 -18.65562,-2.188025 -2.91442,-0.340982 -3.39629,-0.408067 -3.46924,-0.483 -0.43037,-0.44205 -11.68447,-13.465259 -11.65729,-13.489781 0.04,-0.03606 1.78031,-0.192463 3.33347,-0.299577 6.76934,-0.466854 13.78893,-0.280852 20.32251,0.538493 11.32888,1.420704 20.37513,4.630227 24.56917,8.716905 0.37148,0.361968 0.80278,0.816043 0.95845,1.009052 0.76298,0.945988 1.2464,1.884394 1.51408,2.939131 0.11096,0.437185 0.13429,1.546808 0.0429,2.04224 -0.16264,0.882166 -0.49583,1.675352 -1.05606,2.514004 -0.31257,0.467932 -0.34612,0.50245 -0.48359,0.497703 -0.0812,-0.0028 -7.01971,-0.811522 -15.41883,-1.797145 z"
               style="fill:none;fill-opacity:1;stroke:#000000;stroke-width:0.2;stroke-miterlimit:4;stroke-dasharray:none;stroke-opacity:1" />
            <path
               inkscape:connector-curvature="0"
               id="path1172"
               d="m 203.23486,106.1129 c -0.005,-0.1212 -0.0474,-2.46904 -0.0934,-5.21743 l -0.0836,-4.997068 0.17016,-0.212 c 0.32952,-0.410533 0.64557,-0.879293 0.87006,-1.290447 0.10976,-0.201023 0.11074,-0.20219 0.17061,-0.202571 l 0.0602,-2.64e-4 0.01,0.301792 c 0.005,0.165983 0.021,2.028195 0.0349,4.138247 0.0139,2.110051 0.028,3.949941 0.0314,4.088641 l 0.006,0.25218 h -0.0393 c -0.0385,0 -0.0393,0.003 -0.0393,0.1493 0,0.49808 -0.14392,1.22275 -0.35404,1.78263 -0.16892,0.45013 -0.45995,1.02485 -0.69081,1.36421 l -0.043,0.0633 z"
               style="fill:none;fill-opacity:1;stroke:#000000;stroke-width:0.2;stroke-miterlimit:4;stroke-dasharray:none;stroke-opacity:1" />
            <path
               inkscape:connector-curvature="0"
               id="path1174"
               d="m 160.18446,105.78317 c -1.86495,-0.0807 -5.17362,-0.29112 -5.22031,-0.33205 -0.0196,-0.0172 9.81695,-13.446541 10.23143,-13.968416 0.0136,-0.0172 4.20621,0.458201 9.31682,1.056421 5.1106,0.598217 13.4173,1.570614 18.45934,2.160878 5.04204,0.590267 9.2051,1.08512 9.25124,1.099677 0.1286,0.04057 -1.35056,1.347267 -2.26387,1.999901 -5.17015,3.694489 -14.17382,6.394479 -25.05626,7.513779 -4.2049,0.43249 -10.75074,0.64143 -14.71839,0.46981 z"
               style="fill:none;fill-opacity:1;stroke:#000000;stroke-width:0.2;stroke-miterlimit:4;stroke-dasharray:none;stroke-opacity:1" />
            <path
               inkscape:connector-curvature="0"
               id="path1176"
               d="m 159.57642,117.47709 c -0.82319,-0.0398 -2.25836,-0.1262 -3.18926,-0.19195 l -1.69254,-0.11955 -0.0664,-5.46981 c -0.0365,-3.0084 -0.0434,-5.4928 -0.0153,-5.52089 0.0281,-0.0281 0.69332,-0.002 1.4783,0.0569 5.60791,0.42437 12.10297,0.37765 17.70394,-0.12734 6.0014,-0.54109 11.47808,-1.55719 16.34018,-3.03161 5.05517,-1.53297 9.41593,-3.73515 11.74755,-5.932503 0.27068,-0.255093 0.50792,-0.446734 0.52721,-0.425869 0.0193,0.02088 0.0657,2.395377 0.10316,5.276692 l 0.0681,5.23875 -0.78489,0.75352 c -5.13355,4.92841 -16.36682,8.37115 -30.52333,9.35471 -2.35662,0.16373 -9.44388,0.24791 -11.69671,0.13892 z"
               style="fill:none;fill-opacity:1;stroke:#000000;stroke-width:0.2;stroke-miterlimit:4;stroke-dasharray:none;stroke-opacity:1" />
            <g
               id="g1186">
              <path
                 sodipodi:nodetypes="csccsccccccscsccc"
                 style="fill:none;fill-opacity:1;stroke:#000000;stroke-width:0.2;stroke-miterlimit:4;stroke-dasharray:none;stroke-opacity:1"
                 d="m 153.31579,105.32556 c -6.36654,-0.71725 -11.23972,-1.69684 -15.73748,-3.16347 -7.38072,-2.406706 -12.01276,-5.642949 -13.23424,-9.24631 -0.13618,-0.401743 -0.18276,-0.597408 -0.23487,-1.237549 -0.0114,-0.422269 0.0302,-0.685083 0.0117,-0.685083 -0.059,0 0.0402,-0.718465 0.16475,-1.159912 0.51666,-1.831427 1.99722,-3.625405 4.36294,-5.286504 4.79368,-3.365916 13.21805,-5.975345 23.12713,-7.163581 l 0.84583,-0.101425 0.12789,0.133641 c 0.0703,0.0735 2.7278,3.131465 5.90546,6.795474 3.17765,3.664005 5.82587,6.714982 5.88493,6.779947 l 0.10738,0.118116 -5.25467,7.134301 c -4.37525,5.940295 -5.27404,7.135525 -5.37038,7.141595 -0.0636,0.004 -0.38147,-0.0226 -0.70629,-0.0592 z"
                 id="path1178"
                 inkscape:connector-curvature="0" />
              <path
                 style="fill:none;fill-opacity:1;stroke:#000000;stroke-width:0.2;stroke-miterlimit:4;stroke-dasharray:none;stroke-opacity:1"
                 d="m 153.31579,117.04337 c -8.03504,-0.86149 -14.84712,-2.49653 -20.10361,-4.82527 -4.79718,-2.12525 -7.92117,-4.77337 -8.83139,-7.4861 -0.29474,-0.8784 -0.28446,-0.69637 -0.2732,-4.835149 0.006,-2.078868 0.0233,-4.210142 0.0393,-4.736163 l 0.029,-0.9564 0.25207,0.426585 c 0.6041,1.022302 1.69931,2.228858 2.85472,3.144935 4.1801,3.314242 11.27184,5.915312 20.1981,7.408172 1.77146,0.29626 4.18383,0.61965 5.88818,0.78933 l 0.54927,0.0547 0.03,4.49395 c 0.0165,2.47168 0.043,4.96702 0.0589,5.5452 0.0241,0.87507 0.0181,1.05027 -0.0359,1.0454 -0.0357,-0.003 -0.3306,-0.0343 -0.65542,-0.0692 z"
                 id="path1180"
                 inkscape:connector-curvature="0" />
              <path
                 style="fill:none;stroke:#ff0000;stroke-width:0.26458332px;stroke-linecap:butt;stroke-linejoin:miter;stroke-opacity:1"
                 d="m 151.35473,78.85461 -24.50861,9.541523 26.19241,-6.922281 -27.87621,9.354436 30.68254,-7.109372 -30.68254,8.606082 31.61798,-7.109374 -28.99874,9.167344 30.30836,-6.548101 -28.81165,7.857721 31.4309,-7.109368 -29.7471,8.980258 29.56001,-6.92228 -23.57318,7.67063 18.70887,-4.30304 -13.28329,5.23849 19.27013,-7.29646 -18.1476,8.793172 17.02507,-6.922292 -12.34786,6.548112 11.78659,-4.490132 -8.98026,5.799752 6.17393,-2.245062"
                 id="path1182"
                 inkscape:connector-curvature="0" />
              <path
                 style="fill:none;stroke:#ff0000;stroke-width:0.26458332px;stroke-linecap:butt;stroke-linejoin:miter;stroke-opacity:1"
                 d="m 124.46074,95.645818 0.18708,7.577092 1.16931,-5.659432 0.0468,8.793172 0.88867,-5.47235 0.88867,4.86431 1.44994,-5.61266 0.18709,8.98025 1.21607,-4.8643 -0.0935,5.3788 1.44994,-7.43678 -0.0468,8.18513 1.21607,-8.60608 0.42095,9.21412 1.21608,-5.42557 -0.0935,2.57247 0.65481,-1.82412 -0.42095,2.15152 0.79513,-2.19829 0.98221,-2.57247 -1.1693,8.79317 2.19829,-8.51253 -0.98221,9.02702 2.29183,-9.21411 -0.65481,9.49475 1.63703,-8.79317 -0.93545,9.16734 1.73057,-7.99804 0.0468,6.87551 1.3564,-7.29646 -0.23386,9.40121 1.12253,-9.40121 0.28063,9.68184 1.26285,-9.68184 0.32741,9.9157 0.0468,-4.5369 0.70158,4.16273 -0.14032,-8.55931 1.12253,9.26089 -0.14031,-10.10279 2.15152,10.57051 -0.14032,-8.74639 0.70158,7.15614 0.65482,-6.64165 0.42094,5.00462 0.23386,-2.19829 0.14032,0.88867 0.23386,-1.40317 0.0468,0.70159 0.0935,0.42095 0.70158,-2.5257 0.0935,3.18051 0.60804,3.46114 0.37418,-4.11595"
                 id="path1184"
                 inkscape:connector-curvature="0" />
            </g>
            <path
               inkscape:connector-curvature="0"
               id="path1188"
               d="m 166.50891,92.512088 -3.1805,2.80633 5.61266,-2.43216 -7.67064,5.42557 9.72861,-5.61266 -12.90912,9.728622 14.40583,-9.167352 -15.90253,11.038232 17.96051,-11.038232 -16.83798,11.599502 18.33469,-11.225322 -14.9671,10.664052 17.58634,-10.664052 -12.34785,10.664052 14.78,-10.102792 -11.97368,10.476972 15.34128,-10.102792 -11.97368,9.354432 13.47038,-9.167342 -10.66405,10.102792 12.72203,-10.102792 -5.98684,6.922282 5.0514,-4.303042 -2.05798,5.238482 5.79975,-7.296452 -10.66405,8.980252 14.59291,-8.793172 -6.17392,5.986842 7.10936,-6.173922 -3.36759,5.799742 4.8643,-5.799742 -1.30962,2.80632 1.87089,-1.87088 0.18709,1.30962 0.93544,-1.12253 0.18709,0.37417"
               style="fill:none;stroke:#008000;stroke-width:0.26458332px;stroke-linecap:butt;stroke-linejoin:miter;stroke-opacity:1" />
            <path
               inkscape:connector-curvature="0"
               id="path1190"
               d="m 156.40613,107.29209 -0.93545,8.60608 2.80633,-7.29646 2.05798,6.73519 0.37418,-7.10937 1.68379,7.29646 v -7.48355 l 2.24507,8.419 v -8.79317 l 2.3386,8.98025 -0.18708,-7.39 2.43215,6.26747 -0.56127,-8.04481 3.08697,8.60608 -0.93545,-8.79317 3.3676,9.0738 -1.30962,-7.29646 2.24506,6.45456 0.18709,-9.0738 2.33861,9.54152 -0.65481,-8.79316 2.05797,8.60607 0.18709,-9.26088 2.15152,8.41898 -0.0936,-8.79316 1.49672,8.88671 0.74835,-8.69962 1.87089,7.76418 0.0935,-7.39001 2.24506,7.39001 -0.8419,-9.0738 3.46114,8.04481 -0.8419,-9.16735 3.08696,7.85773 -0.74835,-8.51254 2.61924,8.51254 -0.8419,-8.2319 2.15152,6.82873 -0.18709,-8.2319 1.87089,7.20292 -0.37418,-8.23191 2.61924,7.39001 -1.12253,-7.76418 2.05797,6.64164 0.93545,-8.699622"
               style="fill:none;stroke:#008000;stroke-width:0.26458332px;stroke-linecap:butt;stroke-linejoin:miter;stroke-opacity:1" />
            <path
               inkscape:connector-curvature="0"
               id="path1192"
               d="m 202.9137,93.39273 -38.35317,-4.115952 37.97899,2.806332 -39.28861,-4.303041 38.91444,2.432154 -40.22407,-4.303041 40.03698,2.432153 -41.72077,-3.928861 39.10153,1.870887 -40.03698,-3.741774 38.91445,2.432153 -40.59825,-4.864307 38.54027,3.367596 -40.78533,-4.303038 26.56659,0.748356 -20.76684,-2.057977"
               style="fill:none;stroke:#0000ff;stroke-width:0.26458332px;stroke-linecap:butt;stroke-linejoin:miter;stroke-opacity:1" />
            <path
               inkscape:connector-curvature="0"
               id="path1194"
               d="m 203.87987,95.505498 -0.3274,3.3676 0.46772,-2.05798 -0.42095,5.191722 0.56127,-1.59026 -0.5145,3.04019"
               style="fill:none;stroke:#0000ff;stroke-width:0.26458332px;stroke-linecap:butt;stroke-linejoin:miter;stroke-opacity:1" />
          </g>
        </g>
        <g
           id="g1237"
           transform="matrix(-0.82463031,-0.56567204,-0.56567204,0.82463031,330.39867,146.76981)">
          <path
             inkscape:connector-curvature="0"
             id="path1211"
             d="m 187.27992,93.372687 c -8.39911,-0.985626 -16.79414,-1.970236 -18.65562,-2.188025 -2.91442,-0.340982 -3.39629,-0.408067 -3.46924,-0.483 -0.43037,-0.44205 -11.68447,-13.465259 -11.65729,-13.489781 0.04,-0.03606 1.78031,-0.192463 3.33347,-0.299577 6.76934,-0.466854 13.78893,-0.280852 20.32251,0.538493 11.32888,1.420704 20.37513,4.630227 24.56917,8.716905 0.37148,0.361968 0.80278,0.816043 0.95845,1.009052 0.76298,0.945988 1.2464,1.884394 1.51408,2.939131 0.11096,0.437185 0.13429,1.546808 0.0429,2.04224 -0.16264,0.882166 -0.49583,1.675352 -1.05606,2.514004 -0.31257,0.467932 -0.34612,0.50245 -0.48359,0.497703 -0.0812,-0.0028 -7.01971,-0.811522 -15.41883,-1.797145 z"
             style="fill:none;fill-opacity:1;stroke:#000000;stroke-width:0.2;stroke-miterlimit:4;stroke-dasharray:none;stroke-opacity:1" />
          <path
             inkscape:connector-curvature="0"
             id="path1213"
             d="m 203.23486,106.1129 c -0.005,-0.1212 -0.0474,-2.46904 -0.0934,-5.21743 l -0.0836,-4.997068 0.17016,-0.212 c 0.32952,-0.410533 0.64557,-0.879293 0.87006,-1.290447 0.10976,-0.201023 0.11074,-0.20219 0.17061,-0.202571 l 0.0602,-2.64e-4 0.01,0.301792 c 0.005,0.165983 0.021,2.028195 0.0349,4.138247 0.0139,2.110051 0.028,3.949941 0.0314,4.088641 l 0.006,0.25218 h -0.0393 c -0.0385,0 -0.0393,0.003 -0.0393,0.1493 0,0.49808 -0.14392,1.22275 -0.35404,1.78263 -0.16892,0.45013 -0.45995,1.02485 -0.69081,1.36421 l -0.043,0.0633 z"
             style="fill:none;fill-opacity:1;stroke:#000000;stroke-width:0.2;stroke-miterlimit:4;stroke-dasharray:none;stroke-opacity:1" />
          <path
             inkscape:connector-curvature="0"
             id="path1215"
             d="m 160.18446,105.78317 c -1.86495,-0.0807 -5.17362,-0.29112 -5.22031,-0.33205 -0.0196,-0.0172 9.81695,-13.446541 10.23143,-13.968416 0.0136,-0.0172 4.20621,0.458201 9.31682,1.056421 5.1106,0.598217 13.4173,1.570614 18.45934,2.160878 5.04204,0.590267 9.2051,1.08512 9.25124,1.099677 0.1286,0.04057 -1.35056,1.347267 -2.26387,1.999901 -5.17015,3.694489 -14.17382,6.394479 -25.05626,7.513779 -4.2049,0.43249 -10.75074,0.64143 -14.71839,0.46981 z"
             style="fill:none;fill-opacity:1;stroke:#000000;stroke-width:0.2;stroke-miterlimit:4;stroke-dasharray:none;stroke-opacity:1" />
          <path
             inkscape:connector-curvature="0"
             id="path1217"
             d="m 159.57642,117.47709 c -0.82319,-0.0398 -2.25836,-0.1262 -3.18926,-0.19195 l -1.69254,-0.11955 -0.0664,-5.46981 c -0.0365,-3.0084 -0.0434,-5.4928 -0.0153,-5.52089 0.0281,-0.0281 0.69332,-0.002 1.4783,0.0569 5.60791,0.42437 12.10297,0.37765 17.70394,-0.12734 6.0014,-0.54109 11.47808,-1.55719 16.34018,-3.03161 5.05517,-1.53297 9.41593,-3.73515 11.74755,-5.932503 0.27068,-0.255093 0.50792,-0.446734 0.52721,-0.425869 0.0193,0.02088 0.0657,2.395377 0.10316,5.276692 l 0.0681,5.23875 -0.78489,0.75352 c -5.13355,4.92841 -16.36682,8.37115 -30.52333,9.35471 -2.35662,0.16373 -9.44388,0.24791 -11.69671,0.13892 z"
             style="fill:none;fill-opacity:1;stroke:#000000;stroke-width:0.2;stroke-miterlimit:4;stroke-dasharray:none;stroke-opacity:1" />
          <g
             id="g1227">
            <path
               sodipodi:nodetypes="csccsccccccscsccc"
               style="fill:none;fill-opacity:1;stroke:#000000;stroke-width:0.2;stroke-miterlimit:4;stroke-dasharray:none;stroke-opacity:1"
               d="m 153.31579,105.32556 c -6.36654,-0.71725 -11.23972,-1.69684 -15.73748,-3.16347 -7.38072,-2.406706 -12.01276,-5.642949 -13.23424,-9.24631 -0.13618,-0.401743 -0.18276,-0.597408 -0.23487,-1.237549 -0.0114,-0.422269 0.0302,-0.685083 0.0117,-0.685083 -0.059,0 0.0402,-0.718465 0.16475,-1.159912 0.51666,-1.831427 1.99722,-3.625405 4.36294,-5.286504 4.79368,-3.365916 13.21805,-5.975345 23.12713,-7.163581 l 0.84583,-0.101425 0.12789,0.133641 c 0.0703,0.0735 2.7278,3.131465 5.90546,6.795474 3.17765,3.664005 5.82587,6.714982 5.88493,6.779947 l 0.10738,0.118116 -5.25467,7.134301 c -4.37525,5.940295 -5.27404,7.135525 -5.37038,7.141595 -0.0636,0.004 -0.38147,-0.0226 -0.70629,-0.0592 z"
               id="path1219"
               inkscape:connector-curvature="0" />
            <path
               style="fill:none;fill-opacity:1;stroke:#000000;stroke-width:0.2;stroke-miterlimit:4;stroke-dasharray:none;stroke-opacity:1"
               d="m 153.31579,117.04337 c -8.03504,-0.86149 -14.84712,-2.49653 -20.10361,-4.82527 -4.79718,-2.12525 -7.92117,-4.77337 -8.83139,-7.4861 -0.29474,-0.8784 -0.28446,-0.69637 -0.2732,-4.835149 0.006,-2.078868 0.0233,-4.210142 0.0393,-4.736163 l 0.029,-0.9564 0.25207,0.426585 c 0.6041,1.022302 1.69931,2.228858 2.85472,3.144935 4.1801,3.314242 11.27184,5.915312 20.1981,7.408172 1.77146,0.29626 4.18383,0.61965 5.88818,0.78933 l 0.54927,0.0547 0.03,4.49395 c 0.0165,2.47168 0.043,4.96702 0.0589,5.5452 0.0241,0.87507 0.0181,1.05027 -0.0359,1.0454 -0.0357,-0.003 -0.3306,-0.0343 -0.65542,-0.0692 z"
               id="path1221"
               inkscape:connector-curvature="0" />
            <path
               style="fill:none;stroke:#ff0000;stroke-width:0.26458332px;stroke-linecap:butt;stroke-linejoin:miter;stroke-opacity:1"
               d="m 151.35473,78.85461 -24.50861,9.541523 26.19241,-6.922281 -27.87621,9.354436 30.68254,-7.109372 -30.68254,8.606082 31.61798,-7.109374 -28.99874,9.167344 30.30836,-6.548101 -28.81165,7.857721 31.4309,-7.109368 -29.7471,8.980258 29.56001,-6.92228 -23.57318,7.67063 18.70887,-4.30304 -13.28329,5.23849 19.27013,-7.29646 -18.1476,8.793172 17.02507,-6.922292 -12.34786,6.548112 11.78659,-4.490132 -8.98026,5.799752 6.17393,-2.245062"
               id="path1223"
               inkscape:connector-curvature="0" />
            <path
               style="fill:none;stroke:#ff0000;stroke-width:0.26458332px;stroke-linecap:butt;stroke-linejoin:miter;stroke-opacity:1"
               d="m 124.46074,95.645818 0.18708,7.577092 1.16931,-5.659432 0.0468,8.793172 0.88867,-5.47235 0.88867,4.86431 1.44994,-5.61266 0.18709,8.98025 1.21607,-4.8643 -0.0935,5.3788 1.44994,-7.43678 -0.0468,8.18513 1.21607,-8.60608 0.42095,9.21412 1.21608,-5.42557 -0.0935,2.57247 0.65481,-1.82412 -0.42095,2.15152 0.79513,-2.19829 0.98221,-2.57247 -1.1693,8.79317 2.19829,-8.51253 -0.98221,9.02702 2.29183,-9.21411 -0.65481,9.49475 1.63703,-8.79317 -0.93545,9.16734 1.73057,-7.99804 0.0468,6.87551 1.3564,-7.29646 -0.23386,9.40121 1.12253,-9.40121 0.28063,9.68184 1.26285,-9.68184 0.32741,9.9157 0.0468,-4.5369 0.70158,4.16273 -0.14032,-8.55931 1.12253,9.26089 -0.14031,-10.10279 2.15152,10.57051 -0.14032,-8.74639 0.70158,7.15614 0.65482,-6.64165 0.42094,5.00462 0.23386,-2.19829 0.14032,0.88867 0.23386,-1.40317 0.0468,0.70159 0.0935,0.42095 0.70158,-2.5257 0.0935,3.18051 0.60804,3.46114 0.37418,-4.11595"
               id="path1225"
               inkscape:connector-curvature="0" />
          </g>
          <path
             inkscape:connector-curvature="0"
             id="path1229"
             d="m 166.50891,92.512088 -3.1805,2.80633 5.61266,-2.43216 -7.67064,5.42557 9.72861,-5.61266 -12.90912,9.728622 14.40583,-9.167352 -15.90253,11.038232 17.96051,-11.038232 -16.83798,11.599502 18.33469,-11.225322 -14.9671,10.664052 17.58634,-10.664052 -12.34785,10.664052 14.78,-10.102792 -11.97368,10.476972 15.34128,-10.102792 -11.97368,9.354432 13.47038,-9.167342 -10.66405,10.102792 12.72203,-10.102792 -5.98684,6.922282 5.0514,-4.303042 -2.05798,5.238482 5.79975,-7.296452 -10.66405,8.980252 14.59291,-8.793172 -6.17392,5.986842 7.10936,-6.173922 -3.36759,5.799742 4.8643,-5.799742 -1.30962,2.80632 1.87089,-1.87088 0.18709,1.30962 0.93544,-1.12253 0.18709,0.37417"
             style="fill:none;stroke:#008000;stroke-width:0.26458332px;stroke-linecap:butt;stroke-linejoin:miter;stroke-opacity:1" />
          <path
             inkscape:connector-curvature="0"
             id="path1231"
             d="m 156.40613,107.29209 -0.93545,8.60608 2.80633,-7.29646 2.05798,6.73519 0.37418,-7.10937 1.68379,7.29646 v -7.48355 l 2.24507,8.419 v -8.79317 l 2.3386,8.98025 -0.18708,-7.39 2.43215,6.26747 -0.56127,-8.04481 3.08697,8.60608 -0.93545,-8.79317 3.3676,9.0738 -1.30962,-7.29646 2.24506,6.45456 0.18709,-9.0738 2.33861,9.54152 -0.65481,-8.79316 2.05797,8.60607 0.18709,-9.26088 2.15152,8.41898 -0.0936,-8.79316 1.49672,8.88671 0.74835,-8.69962 1.87089,7.76418 0.0935,-7.39001 2.24506,7.39001 -0.8419,-9.0738 3.46114,8.04481 -0.8419,-9.16735 3.08696,7.85773 -0.74835,-8.51254 2.61924,8.51254 -0.8419,-8.2319 2.15152,6.82873 -0.18709,-8.2319 1.87089,7.20292 -0.37418,-8.23191 2.61924,7.39001 -1.12253,-7.76418 2.05797,6.64164 0.93545,-8.699622"
             style="fill:none;stroke:#008000;stroke-width:0.26458332px;stroke-linecap:butt;stroke-linejoin:miter;stroke-opacity:1" />
          <path
             inkscape:connector-curvature="0"
             id="path1233"
             d="m 202.9137,93.39273 -38.35317,-4.115952 37.97899,2.806332 -39.28861,-4.303041 38.91444,2.432154 -40.22407,-4.303041 40.03698,2.432153 -41.72077,-3.928861 39.10153,1.870887 -40.03698,-3.741774 38.91445,2.432153 -40.59825,-4.864307 38.54027,3.367596 -40.78533,-4.303038 26.56659,0.748356 -20.76684,-2.057977"
             style="fill:none;stroke:#0000ff;stroke-width:0.26458332px;stroke-linecap:butt;stroke-linejoin:miter;stroke-opacity:1" />
          <path
             inkscape:connector-curvature="0"
             id="path1235"
             d="m 203.87987,95.505498 -0.3274,3.3676 0.46772,-2.05798 -0.42095,5.191722 0.56127,-1.59026 -0.5145,3.04019"
             style="fill:none;stroke:#0000ff;stroke-width:0.26458332px;stroke-linecap:butt;stroke-linejoin:miter;stroke-opacity:1" />
        </g>
      </g>
    </g>
  </g>
</svg>
